<svg width="54" height="27" viewBox="0 0 54 27" fill="none" xmlns="http://www.w3.org/2000/svg">
<path d="M54 8.31071C52.1104 5.68765 49.6046 3.5604 46.6993 2.113C43.794 0.665595 40.5767 -0.0583854 37.3257 0.00367925C42.2662 11.8184 31.0883 14.0344 31.0883 14.0344C32.0208 11.7266 29.6926 10.0615 29.6926 10.0615C27.8399 11.0777 28.4574 13.9426 28.4574 13.9426C26.8765 13.2019 25.1102 14.1262 25.1102 14.1262C25.2058 13.3628 25.1015 12.5878 24.8073 11.8759C24.513 11.1639 24.0389 10.5391 23.4305 10.0615C21.3863 11.7266 22.5844 14.6772 22.5844 14.6772C11.5979 10.2513 17.9527 0.211812 17.9527 0.211812C3.84744 4.35002 0 12.0755 0 12.0755C14.8957 6.6946 10.6098 19.5806 8.49154 21.7538C15.3712 14.9465 16.3902 23.5903 16.3902 23.5903C17.5018 18.1481 21.8804 18.693 21.8804 18.693C23.3687 24.1412 27.3705 24.1412 27.3705 24.1412L28.0252 27L28.6736 24.1412C29.819 23.5789 30.7683 22.6894 31.399 21.5874C32.0297 20.4854 32.3129 19.2214 32.2122 17.9584C36.0288 16.4831 37.9741 20.8784 37.9741 20.8784C38.3385 10.3247 47.7626 15.8342 47.7626 15.8342C42.4515 5.0785 54 8.31071 54 8.31071ZM22.9982 16.2688C24.8509 15.2832 26.1601 16.9912 26.1601 16.9912C23.943 17.94 22.992 16.2749 22.992 16.2749L22.9982 16.2688ZM27.6546 16.9789C27.6546 16.9789 27.6553 16.9769 27.6569 16.973C27.7007 16.8622 28.3822 15.2406 30.6313 15.5954C30.6313 15.6015 29.9771 17.1677 27.6569 16.973L27.6546 16.9728V16.9789Z" fill="#404040"/>
<path d="M27.6569 16.973C27.7007 16.8622 28.3822 15.2406 30.6313 15.5954C30.6313 15.6015 29.9771 17.1677 27.6569 16.973Z" fill="#FE005B"/>
<path d="M22.9982 16.2688C24.8509 15.2832 26.1601 16.9912 26.1601 16.9912C23.943 17.94 22.992 16.2749 22.992 16.2749L22.9982 16.2688Z" fill="#FE005B"/>
</svg>
