<svg width="203" height="144" viewBox="0 0 203 144" fill="none" xmlns="http://www.w3.org/2000/svg">
<path d="M101.421 144.001C157.159 144.001 202.343 136.643 202.343 127.566C202.343 118.489 157.159 111.131 101.421 111.131C45.6841 111.131 0.5 118.489 0.5 127.566C0.5 136.643 45.6841 144.001 101.421 144.001Z" fill="url(#paint0_radial_3778_58722)"/>
<path d="M144.613 112.548C144.613 112.548 146.88 120.845 149.215 121.127C151.549 121.41 155.594 123.081 154.823 125.521C154.053 127.961 141.675 128.78 134.98 128.78C128.286 128.78 135.751 109.661 138.832 108.696C141.914 107.733 144.613 112.548 144.613 112.548Z" fill="url(#paint1_linear_3778_58722)"/>
<path d="M100.385 9.88989C100.11 8.75739 100.993 7.65569 102.157 7.70969C103.32 7.76359 104.599 8.53398 106.129 9.64588C108.607 11.4461 110.857 13.0228 115.587 11.4461C120.317 9.86928 120.767 1.08939 123.242 0.411485C125.718 -0.266515 128.422 3.33898 131.123 9.41738C133.825 15.4958 138.555 28.331 140.581 40.49C142.607 52.649 149.138 79.151 147.561 96.86C145.984 114.571 147.335 118.151 139.004 125.816C131.105 133.469 111.758 131.681 104.778 129.429C97.7985 127.177 86.3145 109.615 92.6185 89.348C98.9225 69.082 106.579 50.169 107.706 46.116C108.831 42.064 109.283 39.586 108.381 38.235C107.48 36.884 102.752 37.11 101.402 30.128C100.051 23.148 102.978 22.473 102.303 18.6441C101.823 15.9246 100.888 11.952 100.387 9.88219L100.385 9.88989Z" fill="#ECECEC"/>
<mask id="mask0_3778_58722" style="mask-type:luminance" maskUnits="userSpaceOnUse" x="90" y="0" width="58" height="132">
<path d="M100.385 9.88791C100.11 8.75541 100.993 7.65381 102.157 7.70771C103.32 7.76161 104.599 8.53201 106.129 9.64401C108.607 11.4441 110.857 13.0209 115.587 11.4441C120.317 9.86741 120.767 1.08751 123.242 0.409512C125.718 -0.268388 128.422 3.33701 131.123 9.41541C133.825 15.4938 138.555 28.329 140.581 40.488C142.607 52.647 149.138 79.149 147.561 96.858C145.984 114.569 147.335 118.149 139.004 125.814C130.674 133.482 111.758 131.679 104.778 129.427C97.7985 127.175 86.3145 109.613 92.6185 89.346C98.9225 69.08 106.579 50.167 107.706 46.114C108.831 42.062 109.283 39.584 108.381 38.233C107.48 36.882 102.752 37.108 101.402 30.126C100.051 23.146 102.978 22.471 102.303 18.6421C101.823 15.9227 100.888 11.95 100.387 9.88021L100.385 9.88791Z" fill="white"/>
</mask>
<g mask="url(#mask0_3778_58722)">
<g filter="url(#filter0_f_3778_58722)">
<path d="M81 131.5C81 131.5 92.739 127.981 98.38 128C108.951 128.035 119.101 128.712 125.515 129.695C134.567 131.081 137 133 137 133L81 131.5Z" fill="#5E5E5E" fill-opacity="0.5"/>
</g>
<path d="M109.871 54.5033C109.871 54.5033 112.518 52.2973 122.808 52.1513C133.101 52.0043 138.244 54.5033 138.244 54.5033C138.244 54.5033 129.128 58.4733 122.071 58.0313C115.014 57.5903 109.868 54.5033 109.868 54.5033H109.871Z" fill="#C9C9C9"/>
<path d="M95.9682 70.4142C95.9682 70.4142 107.647 65.5302 121.75 65.8532C135.854 66.1772 148.57 71.5392 148.57 71.5392C148.57 71.5392 129.624 79.6722 116.386 78.2872C103.148 76.9032 95.4492 71.3672 95.4492 71.3672L95.9682 70.4142Z" fill="#C9C9C9"/>
<path d="M106.263 91.0919C106.263 91.0919 110.156 87.6309 118.114 87.6309C126.072 87.6309 130.658 91.0919 130.658 91.0919C130.658 91.0919 124.516 94.3789 116.817 93.9479C109.118 93.5169 106.263 91.0919 106.263 91.0919Z" fill="#C9C9C9"/>
<g style="mix-blend-mode:overlay" opacity="0.3" filter="url(#filter1_f_3778_58722)">
<path d="M127.405 4.86914C130.25 11.1941 133.229 18.369 135.9 24.817C136.837 27.044 137.679 29.334 138.445 31.64C139.985 36.25 141.046 40.993 142.032 45.746C143.347 52.277 144.392 58.876 144.952 65.52C145.555 73.249 145.987 81.266 146.036 89.024C146.071 96.271 145.92 103.554 144.839 110.734C144.456 113.12 144.002 115.518 143.129 117.775L143.514 116.014C144.014 113.063 144.212 110.046 144.318 107.064C144.595 96.269 143.904 85.473 143.134 74.708C142.859 71.141 142.589 67.52 142.253 63.956C141.364 55.633 139.993 47.356 138.247 39.17C137.276 34.486 135.954 29.925 134.338 25.418C132.035 18.8389 129.505 11.4971 127.407 4.87434L127.405 4.86914Z" fill="#EDEDED"/>
</g>
<g style="mix-blend-mode:multiply" opacity="0.4">
<g filter="url(#filter2_f_3778_58722)">
<path d="M110.094 37.3721C109.087 50.5381 106.728 63.5091 103.353 76.2531C101.836 81.5361 101.073 87.0391 100.711 92.5631C99.7861 107.128 102.472 122.482 114.95 131.586C117.302 133.352 119.858 134.85 122.441 136.254C117.4 136.295 112.475 135.047 108.001 132.621C93.6691 124.786 89.0731 107.043 90.5291 91.7971C90.9781 86.7211 91.9741 81.7621 93.6671 76.9261C98.7671 64.0661 103.962 49.7491 110.094 37.3691V37.3721Z" fill="#C9C9C9"/>
</g>
</g>
<g style="mix-blend-mode:multiply" opacity="0.4">
<g filter="url(#filter3_f_3778_58722)">
<path d="M102.39 20.1289C103.022 22.0061 103.127 24.112 103.338 26.007C103.72 30.737 104.974 33.072 108.096 36.592C108.689 37.301 109.498 38.187 110.05 38.952C105.539 39.486 100.819 36.687 99.3634 32.299C97.8864 28.013 99.5424 23.401 102.39 20.1289Z" fill="#C9C9C9"/>
</g>
</g>
<g style="mix-blend-mode:multiply" opacity="0.4">
<g filter="url(#filter4_f_3778_58722)">
<path d="M117.228 102.531C122.356 106.697 126.103 114.095 127.284 120.538C127.449 121.557 127.597 122.59 127.572 123.725C125.787 122.6 124.298 121.069 123.006 119.447C119.442 114.834 116.763 108.443 117.228 102.531Z" fill="#C9C9C9"/>
</g>
</g>
</g>
<path d="M120.117 125.433C115.664 118.846 111.296 106.679 107.136 89.2682C101.532 65.8092 87.4813 61.9862 76.6923 62.9132C74.5483 63.0952 72.6973 61.5212 72.5143 59.3952C72.3323 57.2682 73.9063 55.3992 76.0323 55.2162C83.2693 54.5952 90.1283 55.9642 95.8803 59.1692C105.071 64.2892 111.386 73.8112 114.65 87.4732C117.86 100.906 121.154 111.013 124.447 117.521C126.706 121.986 129.272 125.101 129.749 125.433M127.559 123.735C127.559 123.735 127.564 123.735 127.567 123.735C127.567 123.735 127.561 123.735 127.559 123.735Z" fill="#ECECEC"/>
<mask id="mask1_3778_58722" style="mask-type:luminance" maskUnits="userSpaceOnUse" x="72" y="55" width="61" height="77">
<path d="M120.117 125.427C115.664 118.84 111.296 106.673 107.136 89.2618C101.532 65.8028 87.4813 61.9798 76.6923 62.9068C74.5483 63.0888 72.6973 61.5148 72.5143 59.3888C72.3323 57.2618 73.9063 55.3928 76.0323 55.2108C83.2693 54.5888 90.1283 55.9578 95.8803 59.1628C105.071 64.2828 111.386 73.8048 114.65 87.4668C117.86 100.9 121.154 111.008 124.447 117.515C126.706 121.981 128.268 123.316 128.748 123.645C130.376 123.786 131.799 124.959 132.181 126.639C132.654 128.719 131.349 130.789 129.269 131.261C128.971 131.328 128.617 131.377 128.216 131.377C126.349 131.377 123.44 130.339 120.117 125.427ZM127.559 123.729C127.559 123.729 127.564 123.729 127.567 123.729C127.567 123.729 127.562 123.729 127.559 123.729Z" fill="white"/>
</mask>
<g mask="url(#mask1_3778_58722)">
<g style="mix-blend-mode:multiply" opacity="0.4">
<g filter="url(#filter5_f_3778_58722)">
<path d="M113.153 121.702C110.027 109.017 106.879 96.0817 101.705 84.1377C97.4651 74.3947 90.6601 63.6787 79.1451 62.4457C77.5401 62.2457 75.8891 62.2097 74.2041 62.2587C77.4011 61.0157 80.9351 60.5607 84.3781 61.0797C106.905 64.8957 114.837 102.514 113.153 121.702Z" fill="#C9C9C9"/>
</g>
</g>
</g>
<defs>
<filter id="filter0_f_3778_58722" x="77" y="124" width="64" height="13" filterUnits="userSpaceOnUse" color-interpolation-filters="sRGB">
<feFlood flood-opacity="0" result="BackgroundImageFix"/>
<feBlend mode="normal" in="SourceGraphic" in2="BackgroundImageFix" result="shape"/>
<feGaussianBlur stdDeviation="2" result="effect1_foregroundBlur_3778_58722"/>
</filter>
<filter id="filter1_f_3778_58722" x="124.837" y="2.30116" width="23.7717" height="118.042" filterUnits="userSpaceOnUse" color-interpolation-filters="sRGB">
<feFlood flood-opacity="0" result="BackgroundImageFix"/>
<feBlend mode="normal" in="SourceGraphic" in2="BackgroundImageFix" result="shape"/>
<feGaussianBlur stdDeviation="1.28399" result="effect1_foregroundBlur_3778_58722"/>
</filter>
<filter id="filter2_f_3778_58722" x="85.6501" y="32.7468" width="41.4137" height="108.13" filterUnits="userSpaceOnUse" color-interpolation-filters="sRGB">
<feFlood flood-opacity="0" result="BackgroundImageFix"/>
<feBlend mode="normal" in="SourceGraphic" in2="BackgroundImageFix" result="shape"/>
<feGaussianBlur stdDeviation="2.31118" result="effect1_foregroundBlur_3778_58722"/>
</filter>
<filter id="filter3_f_3778_58722" x="95.7309" y="17.0473" width="17.4014" height="25.0513" filterUnits="userSpaceOnUse" color-interpolation-filters="sRGB">
<feFlood flood-opacity="0" result="BackgroundImageFix"/>
<feBlend mode="normal" in="SourceGraphic" in2="BackgroundImageFix" result="shape"/>
<feGaussianBlur stdDeviation="1.54079" result="effect1_foregroundBlur_3778_58722"/>
</filter>
<filter id="filter4_f_3778_58722" x="114.608" y="99.9633" width="15.5354" height="26.3298" filterUnits="userSpaceOnUse" color-interpolation-filters="sRGB">
<feFlood flood-opacity="0" result="BackgroundImageFix"/>
<feBlend mode="normal" in="SourceGraphic" in2="BackgroundImageFix" result="shape"/>
<feGaussianBlur stdDeviation="1.28399" result="effect1_foregroundBlur_3778_58722"/>
</filter>
<filter id="filter5_f_3778_58722" x="71.6361" y="58.3007" width="44.303" height="65.969" filterUnits="userSpaceOnUse" color-interpolation-filters="sRGB">
<feFlood flood-opacity="0" result="BackgroundImageFix"/>
<feBlend mode="normal" in="SourceGraphic" in2="BackgroundImageFix" result="shape"/>
<feGaussianBlur stdDeviation="1.28399" result="effect1_foregroundBlur_3778_58722"/>
</filter>
<radialGradient id="paint0_radial_3778_58722" cx="0" cy="0" r="1" gradientUnits="userSpaceOnUse" gradientTransform="translate(101.426 127.566) rotate(-179.955) scale(80.8336 16.1074)">
<stop offset="0.3119" stop-color="#CACACB"/>
<stop offset="0.8156" stop-color="#D3D3D3" stop-opacity="0"/>
</radialGradient>
<linearGradient id="paint1_linear_3778_58722" x1="133.334" y1="116.61" x2="153.485" y2="126.939" gradientUnits="userSpaceOnUse">
<stop stop-color="#888888"/>
<stop offset="0.76" stop-color="#D3D3D3"/>
</linearGradient>
</defs>
</svg>
