<svg width="38" height="41" viewBox="0 0 38 41" fill="none" xmlns="http://www.w3.org/2000/svg">
<path d="M36.901 18.7451C36.6947 17.209 36.2973 15.7046 35.718 14.267C35.191 12.9908 34.3848 11.8489 33.3587 10.9252C32.8107 10.3943 32.1088 10.0504 31.3535 9.94265C30.3777 9.81262 29.3848 9.93931 28.4728 10.3102C27.7095 9.30337 26.7557 8.45633 25.6657 7.81723C24.7607 7.2787 23.7513 6.93921 22.7048 6.82136C22.5364 6.80337 22.3691 6.77659 22.2035 6.74114C22.4508 6.39358 22.6914 6.03266 22.9454 5.67842C23.3646 5.0955 23.8719 4.58138 24.4493 4.15454C24.757 3.92739 25.0915 3.73884 25.4451 3.59311C25.7067 3.48016 25.9988 3.45897 26.2739 3.53295C26.4343 3.57306 26.4677 3.63988 26.3675 3.77356C26.1078 4.10246 25.9107 4.47628 25.786 4.87639C25.722 5.08315 25.7015 5.3009 25.7256 5.51598C25.7498 5.73106 25.8181 5.93882 25.9263 6.12624C26.0045 6.28508 26.1268 6.41806 26.2785 6.50932C26.4302 6.60058 26.6049 6.64625 26.7819 6.64088C26.931 6.6509 27.0806 6.6509 27.2297 6.64088C27.4546 6.61352 27.6678 6.52486 27.8457 6.38459C28.0237 6.24433 28.1597 6.05785 28.2389 5.84552C28.3933 5.50936 28.4415 5.1341 28.377 4.76986C28.3125 4.40561 28.1384 4.06971 27.878 3.80699C27.7978 3.7201 27.6842 3.67331 27.6441 3.50621C28.0415 3.16379 28.5092 2.9128 29.0142 2.771C29.146 2.74208 29.2835 2.75374 29.4086 2.80443C29.7085 2.90097 29.9975 3.02866 30.2708 3.18541C30.7655 3.46434 31.2332 3.78877 31.6677 4.15454C31.7145 4.19464 31.7679 4.26149 31.8348 4.22807C31.9016 4.19465 31.915 4.0877 31.9083 4.00749C31.8828 3.74975 31.7611 3.51109 31.5674 3.33912C31.2951 3.09216 30.989 2.88513 30.6584 2.72423C30.307 2.53569 29.9143 2.43695 29.5155 2.43681C28.6899 2.41477 27.8776 2.64819 27.1896 3.10519C26.9948 3.24087 26.7569 3.30032 26.5212 3.27228C25.9959 3.23137 25.4677 3.2967 24.9682 3.46436C24.4687 3.63201 24.008 3.89857 23.6138 4.24812C22.9087 4.83614 22.3368 5.5675 21.9362 6.39359C21.803 5.83215 21.7247 5.25912 21.7022 4.68256C21.6868 3.79898 21.5838 2.91911 21.3948 2.05586C21.3506 1.82611 21.2811 1.60196 21.1876 1.38748C21.1489 1.23481 21.08 1.09146 20.9849 0.965936C20.8898 0.840407 20.7704 0.735256 20.6339 0.656716C20.4974 0.578176 20.3465 0.527847 20.1902 0.508714C20.0338 0.489582 19.8753 0.502027 19.7238 0.545327C19.0555 0.618848 18.4406 0.74584 17.7989 0.859463C17.6378 0.893503 17.481 0.945058 17.3311 1.0132C17.0303 1.14687 16.9835 1.27386 17.1306 1.55458C17.2776 1.83529 17.3244 1.9088 17.418 2.08258C17.6297 2.47934 17.7743 2.90847 17.8457 3.3525C17.9369 3.87998 17.9549 4.41751 17.8992 4.9499C17.8552 5.27895 17.7813 5.60334 17.6786 5.91905C17.63 6.0767 17.5453 6.22087 17.4313 6.34013C17.4546 6.14911 17.4364 5.95532 17.3779 5.77201C17.1955 5.14506 16.8467 4.57919 16.3686 4.13449C15.928 3.72702 15.4113 3.41043 14.8482 3.20285C14.2851 2.99526 13.6866 2.90076 13.0869 2.92473C12.6026 2.92798 12.1238 3.02778 11.6785 3.21829C11.2332 3.40879 10.8304 3.68618 10.4936 4.03423C10.4376 4.10377 10.3662 4.15931 10.285 4.19643C10.2038 4.23356 10.115 4.25126 10.0258 4.24812C9.2358 4.28653 8.48504 4.60388 7.90702 5.14373C7.81565 5.20706 7.74151 5.29218 7.69132 5.39138C7.64114 5.49058 7.61651 5.60073 7.61963 5.71186L7.90033 5.48461C8.42998 5.09376 9.01294 4.78089 9.63142 4.55556C9.80519 4.48873 9.9723 4.50209 9.99903 4.55556C10.0258 4.60903 9.96562 4.73602 9.91883 4.82291C9.87205 4.9098 9.83862 4.96995 9.8052 5.05015C9.68863 5.28837 9.62049 5.54736 9.6047 5.81211C9.59062 5.99123 9.61554 6.17127 9.67774 6.33984C9.73994 6.50841 9.83794 6.66151 9.96499 6.78856C10.092 6.91561 10.2451 7.01361 10.4137 7.07581C10.5823 7.13801 10.7623 7.16293 10.9414 7.14885C11.1411 7.14215 11.339 7.10843 11.5296 7.0486C11.7712 6.97574 11.9782 6.81772 12.1122 6.60386C12.2461 6.39 12.298 6.13481 12.2581 5.88562C12.2345 5.67806 12.169 5.47746 12.0656 5.29594C11.9623 5.11442 11.8231 4.95577 11.6566 4.8296C11.5383 4.73582 11.4132 4.65093 11.2823 4.57561C11.1954 4.52214 11.162 4.46198 11.2288 4.38178C11.6726 3.811 12.2971 3.408 13 3.23887C13.1298 3.20888 13.2646 3.20888 13.3944 3.23887C13.8343 3.33047 14.2536 3.50269 14.6309 3.74684C15.5875 4.35914 16.2976 5.28928 16.636 6.37354C16.6828 6.49384 16.7095 6.62084 16.7563 6.73447C16.2179 6.96519 15.6612 7.15074 15.092 7.28921C14.4638 7.44962 13.8355 7.59666 13.2072 7.77043C12.1832 8.04245 11.2668 8.62079 10.5805 9.42801C10.0384 9.33764 9.48509 9.33764 8.94299 9.42801C7.73279 9.62296 6.6136 10.1907 5.7415 11.0521C5.1526 11.6194 4.64435 12.2649 4.23097 12.9704C3.47855 14.2413 2.85605 15.5849 2.3729 16.9806C1.84745 18.5465 1.46709 20.1574 1.23666 21.7929C0.979526 23.4372 0.878832 25.1023 0.935901 26.7656C0.976003 27.5476 1.04951 28.3296 1.14976 29.1049C1.36919 30.8087 1.81888 32.4748 2.48651 34.0575C3.13345 35.6303 4.03688 37.0848 5.16 38.3618C5.54612 38.7961 5.99702 39.1681 6.49675 39.4647C6.75936 39.628 7.05382 39.7333 7.36042 39.7737C7.66702 39.814 7.9787 39.7884 8.27462 39.6986C9.11561 39.4596 9.86248 38.9672 10.4134 38.2883C10.7262 37.8741 10.9908 37.4257 11.2021 36.9516C11.2422 36.8647 11.2623 36.7511 11.4227 36.7645C11.4828 36.8647 11.5563 36.9717 11.6165 37.0853C11.8838 37.5531 12.1378 38.021 12.4118 38.4755C12.7689 39.0793 13.2495 39.6009 13.8221 40.0061C14.1519 40.2525 14.5383 40.4123 14.9458 40.4707C15.3533 40.5291 15.769 40.4842 16.1547 40.3402C17.1222 40.0421 17.9366 39.381 18.4272 38.4955C18.5007 38.3485 18.5876 38.2148 18.7012 38.021L18.855 38.3284C18.9953 38.6292 19.1156 38.9433 19.2827 39.2307C19.4289 39.4901 19.6038 39.7323 19.8041 39.9526C19.9841 40.1541 20.2233 40.2936 20.4873 40.3512C20.7513 40.4088 21.0268 40.3816 21.2745 40.2734C21.9202 40.0329 22.4758 39.5987 22.8652 39.0302C22.9989 38.8431 23.0991 38.6292 23.2194 38.4287C23.2596 38.3619 23.2863 38.275 23.42 38.2883C23.5536 38.5757 23.6873 38.8832 23.8477 39.1706C24.0186 39.5062 24.2674 39.7959 24.5732 40.0157C24.879 40.2355 25.233 40.3788 25.6055 40.4338C26.184 40.5322 26.7757 40.5208 27.35 40.4004C28.3189 40.1757 29.2297 39.7499 30.0235 39.1505C31.0709 38.3825 31.9758 37.437 32.697 36.3567C33.557 35.0653 34.289 33.6931 34.8825 32.2596C35.6184 30.4895 36.152 28.642 36.4733 26.7522C36.6337 25.8833 36.7473 25.0078 36.8877 24.1389C36.9884 23.4748 37.0486 22.8052 37.0681 22.1338C37.1061 21.0015 37.0502 19.8681 36.901 18.7451ZM27.0626 4.14787C27.3278 4.45405 27.4738 4.84558 27.4738 5.25068C27.4738 5.65578 27.3278 6.0473 27.0626 6.35349C26.9322 6.25973 26.8248 6.13764 26.7484 5.99642C26.672 5.85519 26.6286 5.69848 26.6215 5.53807C26.5962 5.28851 26.6224 5.03642 26.6982 4.79733C26.7741 4.55824 26.8981 4.33723 27.0626 4.14787ZM11.4093 6.11286C11.4269 6.25292 11.4034 6.39509 11.3417 6.52205C11.28 6.64901 11.1827 6.75531 11.0617 6.82803C10.9195 6.72751 10.8002 6.59793 10.7118 6.44787C10.6234 6.2978 10.5679 6.13065 10.549 5.95752C10.53 5.78438 10.548 5.60919 10.6019 5.44355C10.6557 5.27791 10.7441 5.1256 10.8612 4.99669C11.0315 5.12882 11.1693 5.29803 11.2642 5.49144C11.3592 5.68486 11.4088 5.89739 11.4093 6.11286ZM12.3918 19.1929C12.6758 18.6846 13.0586 18.2382 13.5178 17.88C13.9769 17.5219 14.5031 17.2593 15.0653 17.1076C15.6989 16.9128 16.3787 16.9293 17.002 17.1548C17.6253 17.3803 18.1584 17.8024 18.5208 18.3575C18.9668 19.0049 19.2594 19.7455 19.3763 20.523C19.4508 20.8969 19.4822 21.2781 19.4699 21.6592C19.4731 22.7629 19.1997 23.8499 18.6745 24.8206C18.1488 25.7964 17.3007 26.5594 16.275 26.9795C15.7034 27.2458 15.0604 27.3181 14.4439 27.1854C13.8274 27.0526 13.2711 26.7222 12.8597 26.2443C12.3243 25.6673 11.9447 24.9634 11.7569 24.199C11.5161 23.3654 11.4482 22.4913 11.5574 21.6304C11.6666 20.7696 11.9505 19.9401 12.3918 19.1929ZM21.2076 22.2875C21.5725 21.5119 22.1966 20.8879 22.9722 20.523C23.3198 20.3659 23.6826 20.245 24.0549 20.1621C24.3326 20.1004 24.6207 20.1027 24.8975 20.1687C25.1742 20.2347 25.4323 20.3627 25.6523 20.543C26.0906 20.8853 26.4165 21.3508 26.5881 21.8798C26.844 22.6133 26.9312 23.395 26.8433 24.1668C26.7553 24.9387 26.4945 25.6807 26.0801 26.3378C25.5339 27.2264 24.6759 27.8794 23.6739 28.1692C23.3008 28.2983 22.8972 28.3113 22.5165 28.2063C22.1358 28.1013 21.796 27.8832 21.5418 27.581C21.2019 27.2105 20.9566 26.7634 20.8267 26.2777C20.6786 25.8018 20.6064 25.3056 20.6128 24.8073C20.6221 23.9337 20.8253 23.073 21.2076 22.2875ZM33.3854 21.3986C33.249 23.5097 32.9541 25.6076 32.5031 27.6746C32.2786 28.6323 31.9791 29.5709 31.6075 30.4817C30.977 32.1256 29.8719 33.5447 28.4327 34.5588L28.1921 34.7125C28.0585 34.6457 28.0986 34.5388 28.0785 34.4519C28.0206 34.022 27.929 33.5974 27.8045 33.182C27.7233 32.944 27.6086 32.719 27.4636 32.5136C27.416 32.4457 27.3515 32.3915 27.2765 32.3563C27.2014 32.3211 27.1185 32.3062 27.0358 32.3131C26.8002 32.31 26.569 32.377 26.3715 32.5055C26.1739 32.634 26.019 32.8182 25.9263 33.0349C25.8235 33.28 25.7473 33.5355 25.6991 33.7969C25.5935 34.3359 25.5176 34.8803 25.4719 35.4277C25.4719 35.7485 25.3983 35.7953 25.0842 35.822C23.5603 35.9691 22.0364 36.1094 20.5059 36.1228C19.9511 36.1228 19.403 36.1228 18.855 36.1228C17.6519 36.1228 16.4555 36.0426 15.2591 35.9691C13.9797 35.8802 12.7086 35.697 11.4561 35.421C10.7877 35.2807 10.8746 35.421 10.888 34.6925C10.888 34.2647 10.9348 33.8303 10.9414 33.3958C10.9416 33.1473 10.9215 32.8992 10.8813 32.654C10.8278 32.3666 10.6741 32.273 10.3733 32.2863C10.1729 32.2992 9.97849 32.36 9.80638 32.4635C9.63427 32.567 9.48947 32.7102 9.38412 32.8812C9.27574 33.0478 9.18396 33.2247 9.11009 33.4092C8.96973 33.73 8.85611 34.0776 8.72244 34.385C8.66897 34.5321 8.60881 34.5655 8.46176 34.5254C8.32995 34.5026 8.20182 34.4621 8.08081 34.4051C7.7533 34.2447 7.41242 34.0843 7.10497 33.8971C6.81055 33.7074 6.55809 33.4595 6.36308 33.1686C6.01955 32.6751 5.7389 32.1408 5.52762 31.5779C4.99961 30.1449 4.62763 28.6592 4.41812 27.1466C4.21881 25.7098 4.15615 24.2574 4.23097 22.8088C4.26952 21.4264 4.46004 20.0524 4.79909 18.7117C4.83251 18.6048 4.86593 18.4911 4.90604 18.3775C4.96009 18.2372 5.05046 18.1137 5.16789 18.0197C5.28533 17.9258 5.42562 17.8647 5.57441 17.8428C5.59854 17.8344 5.6241 17.8308 5.64961 17.8323C5.67513 17.8338 5.7001 17.8403 5.72308 17.8515C5.74607 17.8627 5.76662 17.8783 5.78354 17.8975C5.80047 17.9166 5.81344 17.9389 5.8217 17.9631C5.92523 18.2269 5.99267 18.5034 6.02221 18.7852C6.12246 19.4536 6.20935 20.122 6.32965 20.7903C6.66931 23.0137 7.30783 25.181 8.22785 27.2334C8.54833 27.9491 8.93782 28.6319 9.39081 29.272C9.48438 29.3923 9.57128 29.5126 9.66485 29.6262C10.5672 30.6422 10.654 30.5954 11.8103 30.8293C12.6111 30.9895 13.4216 31.0967 14.2365 31.1501L14.4838 31.1835C14.5501 31.1817 14.6144 31.2058 14.6631 31.2508C14.7118 31.2958 14.741 31.358 14.7445 31.4242C14.8545 32.0293 15.0155 32.624 15.2257 33.202C15.3059 33.4312 15.402 33.6545 15.5131 33.8704C15.747 34.3115 15.9876 34.385 16.4622 34.2313C16.6533 34.1716 16.8279 34.0679 16.9718 33.9286C17.1157 33.7894 17.225 33.6184 17.291 33.4293C17.444 32.9951 17.5559 32.5476 17.6252 32.0925C17.6252 31.8787 17.692 31.6648 17.7321 31.4242C17.7368 31.3916 17.7527 31.3618 17.7771 31.3398C17.8016 31.3178 17.8329 31.3051 17.8658 31.3038C18.1232 31.2712 18.3837 31.2712 18.6411 31.3038C18.6411 31.5846 18.6946 31.8653 18.7146 32.146C18.7606 32.7272 18.8636 33.3026 19.0221 33.8637C19.076 34.0909 19.1837 34.3018 19.3362 34.4786C19.388 34.5448 19.4578 34.5945 19.5373 34.6218C19.6168 34.6491 19.7025 34.6528 19.784 34.6323C20.1627 34.5615 20.5012 34.3518 20.7331 34.0442C21.0111 33.6284 21.2356 33.1793 21.4015 32.7074C21.5619 32.2863 21.729 31.872 21.8626 31.4442C21.8772 31.3545 21.9239 31.2732 21.994 31.2154C22.0641 31.1576 22.1528 31.1273 22.2436 31.1301C22.9521 31.0766 23.6606 30.9763 24.369 30.856C25.6191 30.6217 26.8182 30.1692 27.9114 29.5193C28.1353 29.3744 28.3359 29.1964 28.5063 28.9913C29.4602 27.9629 30.2109 26.7632 30.7186 25.4556C31.2808 24.0308 31.7409 22.5678 32.0954 21.0777C32.1489 20.8705 32.2157 20.6634 32.2625 20.4562C32.2814 20.3658 32.3262 20.2828 32.3915 20.2175C32.4568 20.1522 32.5397 20.1074 32.6301 20.0885C32.6759 20.0699 32.7228 20.0543 32.7705 20.0418C33.2785 19.9616 33.3453 19.9816 33.3787 20.4762C33.4124 20.7826 33.4146 21.0917 33.3854 21.3986Z" fill="#F38F13"/>
</svg>
