<svg width="44" height="33" viewBox="0 0 44 33" fill="none" xmlns="http://www.w3.org/2000/svg">
<path d="M40.6538 5.90293C36.4629 5.29884 34.8502 9.03126 33.1027 9.2524C31.8891 9.40882 31.1448 8.37863 30.8103 7.74757C29.9474 3.972 27.8384 0.379815 22.9194 0.271942C17.3909 0.147887 14.57 3.01193 13.4158 7.45631V7.27292C13.4158 7.27292 12.6391 9.47354 10.9023 9.2524C9.16555 9.03126 7.55284 5.29884 3.35117 5.90293C-0.8505 6.50702 0.114971 12.4401 0.422411 14.8025C0.72985 17.1649 1.67914 17.44 2.51516 14.9643C3.35118 12.4886 5.44932 11.507 5.44932 14.0851C5.44932 16.6633 6.94336 17.4939 7.4234 15.4605C7.90344 13.4271 9.15476 14.4735 9.27343 15.6277C9.39209 16.782 9.63479 17.3861 10.2928 17.44C10.9508 17.4939 10.8915 16.4476 11.0695 15.1315C11.2475 13.8154 12.6067 14.1337 12.6175 15.6008C12.4018 21.345 12.213 26.3881 12.213 26.3881C12.1213 28.9447 13.4697 28.1195 13.4697 27.3751C13.4697 26.6308 13.4697 25.5629 13.9174 25.3148C14.365 25.0666 14.2733 27.0461 14.4567 28.2813C14.6401 29.5164 16.2474 29.1065 16.1611 27.1324C16.0748 25.1583 17.1482 25.2338 17.1482 26.5553C17.1482 27.8767 17.0565 30.0989 17.9572 29.7645C18.858 29.4301 18.6746 28.1464 18.7609 25.6492C18.8472 23.1519 19.9313 23.0926 19.9313 24.9048C19.9313 26.7171 19.2086 32.6501 21.5494 32.731C23.8903 32.812 23.7932 27.4614 23.8849 24.2468C23.9766 21.0322 26.6626 20.865 26.4846 24.2468C26.3066 27.6286 27.202 29.8508 28.011 28.9447C28.8201 28.0386 28.3724 24.6298 28.4587 23.5888C28.545 22.5478 29.8071 22.5963 29.8934 24.5758C29.9797 26.5553 30.9722 27.0461 31.1502 25.3148C31.3012 23.8908 31.3227 19.7862 31.3281 15.714C31.3605 15.9999 31.3659 16.0646 31.3281 15.7841C31.2041 14.1391 32.7035 13.8101 32.8815 15.1261C33.0595 16.4422 33.0002 17.4885 33.6582 17.4346C34.3162 17.3807 34.559 16.7766 34.6776 15.6223C34.7963 14.4681 36.053 13.4217 36.533 15.4551C37.0131 17.4885 38.5664 16.6687 38.5664 14.0851C38.5664 11.5016 40.6592 12.494 41.4952 14.9643C42.3312 17.4346 43.2913 17.1649 43.588 14.8025C43.8846 12.4401 44.8393 6.50702 40.6538 5.90293ZM17.3963 10.9946C16.5657 12.3214 15.4276 11.0647 16.2582 8.69685C17.0889 6.32903 19.6724 5.35278 20.886 6.67423C22.0996 7.99568 20.5839 9.2524 19.5969 9.37106C18.6099 9.48972 17.3963 10.9946 17.3963 10.9946ZM23.1244 16.755C21.9917 18.2868 20.4275 19.112 19.5915 18.605C18.7555 18.098 19.0198 16.4476 20.1309 14.905C21.242 13.3624 22.8277 12.5425 23.6637 13.0549C24.4998 13.5673 24.2516 15.2394 23.1244 16.755ZM26.6195 10.9083C26.6195 10.9083 25.6918 9.52748 24.9366 9.39803C24.1815 9.26858 23.0219 8.08197 23.9496 6.83064C24.8773 5.57931 26.8514 6.50163 27.4878 8.74C28.1243 10.9784 27.2397 12.1758 26.6195 10.9244V10.9083Z" fill="#373737"/>
<path d="M17.3963 10.9946C16.5657 12.3214 15.4276 11.0647 16.2582 8.69685C17.0889 6.32903 19.6724 5.35278 20.886 6.67423C22.0996 7.99568 20.5839 9.2524 19.5969 9.37106C18.6099 9.48972 17.3963 10.9946 17.3963 10.9946Z" fill="#FE005B"/>
<path d="M26.6195 10.9083C26.6195 10.9083 25.6918 9.52748 24.9366 9.39803C24.1815 9.26858 23.0219 8.08197 23.9496 6.83064C24.8773 5.57931 26.8514 6.50163 27.4878 8.74C28.1243 10.9784 27.2397 12.1758 26.6195 10.9244V10.9083Z" fill="#FE005B"/>
</svg>
