<svg width="343" height="212" viewBox="0 0 343 212" fill="none" xmlns="http://www.w3.org/2000/svg">
<rect width="342.716" height="211.976" fill="#FAFAFA" fill-opacity="0.5"/>
<rect x="165.5" y="26.5" width="111" height="33" rx="3.5" fill="white" stroke="#F0F3FA"/>
<rect x="165.5" y="68.5" width="111" height="33" rx="3.5" fill="white" stroke="#F0F3FA" stroke-linecap="round" stroke-dasharray="6 6"/>
<rect x="204.598" y="68.9572" width="111" height="33" rx="3.5" transform="rotate(-12.6771 204.598 68.9572)" fill="white" stroke="#F0F3FA"/>
<g filter="url(#filter0_d_188_50)">
<rect x="236.526" y="75.2948" width="4.7321" height="4.7321" rx="1" transform="rotate(-57.68 236.526 75.2948)" fill="#FE005B"/>
<rect x="241.442" y="78.4054" width="4.7321" height="4.7321" rx="1" transform="rotate(-57.68 241.442 78.4054)" fill="#FE005B"/>
<rect x="238.418" y="83.1859" width="4.7321" height="4.7321" rx="1" transform="rotate(-57.68 238.418 83.1859)" fill="#FE005B"/>
<rect x="233.638" y="80.1615" width="4.7321" height="4.7321" rx="1" transform="rotate(-57.68 233.638 80.1615)" fill="#FE005B"/>
</g>
<g filter="url(#filter1_d_188_50)">
<rect x="251.959" y="71.8809" width="39" height="8" rx="4" transform="rotate(-12.68 251.959 71.8809)" fill="#FE005B"/>
</g>
<path fill-rule="evenodd" clip-rule="evenodd" d="M298.255 72L320.127 87.5808L308.941 90.157L300.671 98.9334L298.255 72Z" fill="#1ABCFE"/>
<path fill-rule="evenodd" clip-rule="evenodd" d="M320.127 87.5808L308.941 90.157L300.671 98.9334L298.255 72L320.127 87.5808ZM302.053 94.9241L308.046 88.565L315.944 86.7459L300.322 75.6169L302.053 94.9241Z" fill="#F0F3FA"/>
<g filter="url(#filter2_d_188_50)">
<rect width="131.228" height="39.6819" transform="translate(20.0001 24)" fill="url(#paint0_linear_188_50)"/>
<path d="M31.6207 45.4671L44.2253 44.5883L44.7332 51.8728L32.1286 52.7516L31.6207 45.4671ZM33.4225 61.8729L23.7644 62.5463L21.7671 33.8994L45.0529 32.2759L45.5608 39.5604L31.9331 40.5105L33.4225 61.8729Z" fill="white"/>
<path d="M64.9663 60.3317C62.6473 60.4933 60.4662 60.2753 58.4232 59.6775C56.4075 59.0778 54.6301 58.16 53.0909 56.9239C51.5498 55.6606 50.3063 54.1435 49.3603 52.3726C48.4417 50.5999 47.9072 48.6358 47.757 46.4805C47.6048 44.2978 47.8615 42.2786 48.5272 40.4228C49.2182 38.5378 50.2401 36.8764 51.5929 35.4388C52.9438 33.9738 54.5757 32.8045 56.4887 31.9309C58.429 31.0555 60.5587 30.5369 62.8777 30.3752C65.224 30.2116 67.405 30.4296 69.4208 31.0293C71.4365 31.629 73.2149 32.5605 74.756 33.8238C76.2952 35.0599 77.5241 36.5643 78.4427 38.3371C79.3868 40.0806 79.9349 42.0438 80.087 44.2264C80.2373 46.3817 79.9669 48.4019 79.2759 50.2869C78.6121 52.17 77.6048 53.844 76.2539 55.309C74.9012 56.7467 73.2683 57.9023 71.3553 58.7759C69.4423 59.6495 67.3126 60.1681 64.9663 60.3317ZM64.4213 52.5151C65.3217 52.4524 66.1424 52.2307 66.8835 51.85C67.6518 51.4675 68.3016 50.9561 68.8327 50.3159C69.3891 49.6466 69.8006 48.864 70.0671 47.9681C70.3318 47.0449 70.4251 46.024 70.3471 44.9055C70.2691 43.7869 70.036 42.8025 69.6477 41.9522C69.2575 41.0747 68.7414 40.3568 68.0994 39.7984C67.4827 39.2109 66.7673 38.781 65.9533 38.5087C65.1665 38.2346 64.323 38.1289 63.4227 38.1917C62.5223 38.2545 61.688 38.4771 60.9196 38.8597C60.1785 39.2403 59.5297 39.7653 58.9733 40.4347C58.4422 41.0749 58.0443 41.8565 57.7797 42.7797C57.5132 43.6756 57.4189 44.6828 57.4969 45.8014C57.5749 46.92 57.809 47.918 58.1991 48.7955C58.5874 49.6458 59.0899 50.3646 59.7066 50.9522C60.3486 51.5106 61.063 51.9268 61.8498 52.201C62.6638 52.4732 63.521 52.5779 64.4213 52.5151Z" fill="white"/>
<path d="M84.5911 58.3054L82.5938 29.6585L96.3852 28.697C99.059 28.5106 101.395 28.7864 103.393 29.5243C105.418 30.2604 107.02 31.4099 108.198 32.9727C109.374 34.5082 110.039 36.3809 110.193 38.5908C110.347 40.8007 109.949 42.7475 108.997 44.4314C108.043 46.088 106.613 47.4077 104.708 48.3904C102.83 49.3712 100.554 49.9548 97.8804 50.1412L89.45 50.729L93.4702 46.4598L94.2492 57.6321L84.5911 58.3054ZM101.738 57.1099L93.9718 47.165L104.203 46.4517L112.051 56.3909L101.738 57.1099ZM93.5444 47.5238L88.9421 43.4445L96.7586 42.8995C98.0955 42.8063 99.0567 42.4377 99.6424 41.7938C100.255 41.1479 100.526 40.3066 100.453 39.2698C100.381 38.2331 99.9966 37.4374 99.3 36.8829C98.6306 36.3264 97.6275 36.0948 96.2907 36.188L88.4742 36.7329L92.4659 32.0545L93.5444 47.5238Z" fill="white"/>
<path d="M115.084 56.1794L113.087 27.5325L121.026 26.979L133.789 44.8824L129.615 45.1734L139.442 25.695L147.382 25.1415L149.461 53.7827L140.662 54.3961L139.507 39.0144L140.899 38.9173L134.18 52.2573L129.924 52.554L121.091 40.2983L122.81 40.1785L123.883 55.566L115.084 56.1794Z" fill="white"/>
</g>
<g filter="url(#filter3_d_188_50)">
<path d="M134.206 109.741C134.232 109.864 134.297 109.925 134.365 109.972C134.451 110.03 134.512 110.117 134.556 110.216C134.592 110.285 134.63 110.341 134.674 110.405C134.844 110.464 134.961 110.583 135.086 110.697C135.252 110.853 135.417 111.009 135.578 111.156C135.583 111.164 135.597 111.167 135.602 111.175C135.775 111.443 136.069 111.581 136.303 111.785C136.417 111.882 136.541 111.961 136.637 112.083C136.67 112.131 136.721 112.154 136.77 112.191C136.93 112.304 137.108 112.393 137.268 112.506C137.403 112.6 137.568 112.652 137.73 112.716C137.781 112.74 137.84 112.758 137.883 112.787C138.143 112.96 138.429 113.069 138.721 113.185C139.115 113.348 139.522 113.479 139.923 113.602C140.303 113.728 140.685 113.806 141.075 113.878C141.546 113.966 142.025 114.047 142.501 114.107C142.745 114.139 142.984 114.162 143.236 114.153C143.397 114.148 143.561 114.165 143.714 114.165C144.012 114.172 144.302 114.184 144.589 114.174C144.876 114.165 145.173 114.136 145.463 114.113C145.675 114.097 145.894 114.075 146.106 114.059C146.136 114.05 146.162 114.055 146.192 114.047C146.84 113.93 147.495 113.808 148.141 113.705C148.815 113.593 149.478 113.431 150.125 113.245C150.641 113.09 151.148 112.905 151.664 112.75C152.476 112.497 153.252 112.14 154.026 111.796C154.474 111.594 154.905 111.368 155.35 111.144C155.641 111.003 155.915 110.839 156.195 110.682C156.28 110.635 156.389 110.606 156.475 110.56C156.568 110.507 156.637 110.437 156.724 110.376C156.961 110.225 157.206 110.069 157.454 109.934C157.739 109.785 157.985 109.58 158.259 109.415C158.733 109.114 159.166 108.769 159.617 108.436C159.657 108.408 159.691 108.373 159.737 108.354C160.155 108.125 160.513 107.809 160.885 107.53C160.964 107.475 161.02 107.402 161.094 107.339C161.16 107.282 161.219 107.23 161.285 107.173C161.513 106.992 161.747 106.82 161.983 106.634C162.129 106.522 162.289 106.412 162.408 106.26C162.444 106.212 162.514 106.176 162.556 106.135C162.665 106.037 162.776 105.925 162.885 105.827C162.927 105.786 162.969 105.745 163.009 105.718C163.381 105.404 163.709 105.062 164.056 104.729C164.326 104.473 164.572 104.199 164.834 103.948C165.07 103.728 165.292 103.504 165.492 103.249C165.658 103.03 165.849 102.829 166.007 102.614C166.212 102.332 166.442 102.069 166.672 101.805C166.949 101.474 167.221 101.135 167.444 100.759C167.544 100.597 167.668 100.453 167.768 100.29C167.904 100.079 168.035 99.8599 168.18 99.6432C168.367 99.3508 168.566 99.0609 168.753 98.7685C168.94 98.4761 169.126 98.1838 169.307 97.8834C169.446 97.6588 169.561 97.4157 169.692 97.1965C169.823 96.9774 169.941 96.7557 170.048 96.5181C170.191 96.1969 170.377 95.9045 170.577 95.6146C170.662 95.498 170.719 95.3765 170.76 95.231C170.888 94.8027 171.073 94.4057 171.285 94.0137C171.403 93.792 171.48 93.5629 171.552 93.3258C171.629 93.0618 171.712 92.8058 171.853 92.5677C171.906 92.4731 171.947 92.3625 171.975 92.2494C172.018 92.0557 172.107 91.8774 172.214 91.7095C172.301 91.5795 172.383 91.4415 172.472 91.2981C172.626 91.2154 172.767 91.1302 172.95 91.1222C173.046 91.1262 173.132 91.0794 173.206 91.0166C173.272 90.9594 173.344 90.91 173.408 90.8662C173.469 90.8707 173.523 90.8807 173.585 90.8851C173.588 90.9066 173.599 90.9225 173.589 90.9414C173.483 91.2487 173.371 91.5481 173.274 91.8499C173.212 92.0332 173.158 92.211 173.053 92.3655C173.005 92.4332 172.982 92.5194 172.967 92.6001C172.945 92.7211 172.89 92.8292 172.835 92.9373C172.72 93.1455 172.631 93.3587 172.581 93.5928C172.536 93.8348 172.464 94.0719 172.4 94.3035C172.393 94.3439 172.385 94.3842 172.367 94.4086C172.204 94.6497 172.116 94.9327 171.926 95.1688C171.81 95.3072 171.732 95.4666 171.678 95.6444C171.629 95.7953 171.553 95.9413 171.504 96.0922C171.46 96.2162 171.39 96.3353 171.359 96.4618C171.308 96.661 171.219 96.8394 171.106 96.9992C170.982 97.1781 170.853 97.3489 170.73 97.5277C170.619 97.6742 170.522 97.8231 170.462 97.993C170.38 98.249 170.216 98.4552 170.088 98.6958C169.952 98.9418 169.735 99.1381 169.593 99.3762C169.485 99.544 169.378 99.7119 169.27 99.8798C169.251 99.9042 169.233 99.9286 169.228 99.9555C169.157 100.227 168.98 100.431 168.8 100.648C168.702 100.762 168.635 100.903 168.561 101.035C168.457 101.225 168.327 101.395 168.166 101.553C168.131 101.589 168.097 101.624 168.071 101.654C167.905 101.874 167.739 102.093 167.567 102.305C167.475 102.427 167.372 102.533 167.268 102.639C167.078 102.84 166.885 103.055 166.687 103.262C166.668 103.286 166.65 103.311 166.639 103.33C166.408 103.676 166.117 103.97 165.831 104.272C165.641 104.473 165.464 104.677 165.262 104.862C164.95 105.159 164.643 105.464 164.281 105.724C164.047 105.896 163.814 106.069 163.635 106.321C163.595 106.383 163.531 106.427 163.468 106.471C163.069 106.779 162.674 107.075 162.275 107.384C162.193 107.452 162.124 107.523 162.048 107.599C161.989 107.651 161.944 107.705 161.881 107.749C161.241 108.235 160.606 108.73 159.961 109.209C159.671 109.419 159.359 109.598 159.059 109.793C159.035 109.809 159.011 109.826 158.987 109.842C158.75 109.993 158.514 110.144 158.263 110.293C158.037 110.425 157.811 110.557 157.577 110.694C157.412 110.796 157.233 110.895 157.063 110.988C156.844 111.115 156.626 111.242 156.394 111.366C156.131 111.512 155.867 111.657 155.593 111.787C155.15 111.998 154.707 112.208 154.265 112.418C153.969 112.551 153.673 112.719 153.347 112.791C153.318 112.799 153.288 112.808 153.272 112.819C152.872 112.988 152.472 113.157 152.072 113.327C152.034 113.341 152.002 113.363 151.973 113.371C151.703 113.439 151.469 113.577 151.201 113.632C151.1 113.654 151.006 113.707 150.91 113.738C150.523 113.875 150.144 114.006 149.745 114.092C149.737 114.098 149.724 114.095 149.716 114.101C149.449 114.19 149.176 114.272 148.895 114.324C148.721 114.362 148.556 114.429 148.374 114.471C147.986 114.574 147.603 114.649 147.207 114.721C146.616 114.835 146.016 114.918 145.422 115.01C145.4 115.013 145.387 115.01 145.365 115.013C145.138 115.111 144.902 115.074 144.663 115.085C144.551 115.092 144.438 115.099 144.331 115.114C143.881 115.177 143.436 115.213 142.974 115.19C142.332 115.161 141.691 115.133 141.049 115.105C141.014 115.105 140.971 115.111 140.939 115.098C140.556 114.986 140.151 114.994 139.771 114.868C139.647 114.824 139.51 114.813 139.381 114.796C139.198 114.769 139.013 114.721 138.835 114.667C138.538 114.577 138.237 114.514 137.94 114.39C137.759 114.315 137.558 114.277 137.377 114.202C137.059 114.081 136.743 113.946 136.443 113.8C136.238 113.706 136.053 113.575 135.851 113.468C135.718 113.394 135.583 113.335 135.451 113.261C135.381 113.228 135.318 113.188 135.256 113.149C134.88 112.891 134.509 112.642 134.153 112.346C134.093 112.294 134.02 112.238 133.944 112.196C133.806 112.115 133.679 112.015 133.578 111.885C133.572 111.877 133.567 111.869 133.561 111.861C133.317 111.677 133.116 111.452 132.896 111.251C132.855 111.209 132.812 111.18 132.76 111.157C132.722 111.136 132.674 111.134 132.634 111.126C132.498 111.219 132.373 111.293 132.251 111.389C132.161 111.463 132.084 111.539 131.994 111.613C131.869 111.722 131.737 111.836 131.606 111.938C131.394 112.107 131.163 112.266 130.956 112.443C130.823 112.558 130.642 112.601 130.523 112.752C130.407 112.891 130.25 112.987 130.112 113.094C129.966 113.206 129.827 113.312 129.676 113.416C129.548 113.504 129.423 113.578 129.29 113.658C129.226 113.702 129.163 113.746 129.107 113.784C128.873 113.956 128.631 114.134 128.403 114.315C128.249 114.432 128.081 114.547 127.911 114.641C127.61 114.801 127.325 114.984 127.03 115.152C126.82 115.273 126.604 115.386 126.38 115.505C126.182 115.524 126.017 115.66 125.827 115.709C125.79 115.723 125.747 115.729 125.723 115.745C125.51 115.88 125.29 116.02 125.077 116.154C125.029 116.187 124.981 116.22 124.928 116.245C124.677 116.358 124.429 116.458 124.173 116.564C124.074 116.608 123.983 116.647 123.885 116.692C123.765 116.739 123.647 116.808 123.522 116.847C123.3 116.917 123.1 117.019 122.895 117.113C122.706 117.197 122.519 117.301 122.304 117.296C122.248 117.3 122.195 117.325 122.136 117.342C121.912 117.425 121.696 117.503 121.471 117.587C121.426 117.607 121.381 117.626 121.338 117.632C121.139 117.651 120.982 117.747 120.814 117.827C120.647 117.907 120.473 117.98 120.283 118.028C120.08 118.074 119.882 118.128 119.693 118.211C119.474 118.302 119.241 118.357 119.014 118.419C118.728 118.498 118.447 118.551 118.166 118.638C117.394 118.863 116.604 118.995 115.815 119.162C115.569 119.214 115.32 119.279 115.066 119.302C114.664 119.332 114.289 119.436 113.893 119.474C113.357 119.514 112.823 119.54 112.279 119.586C111.869 119.621 111.469 119.603 111.061 119.625C111.005 119.628 110.949 119.632 110.895 119.622C110.634 119.566 110.371 119.594 110.106 119.601C109.918 119.601 109.73 119.601 109.537 119.593C109.454 119.591 109.37 119.59 109.279 119.594C109.14 119.596 108.998 119.611 108.86 119.565C108.828 119.552 108.788 119.545 108.745 119.55C108.434 119.576 108.124 119.519 107.81 119.489C107.646 119.472 107.479 119.434 107.302 119.45C107.225 119.457 107.139 119.434 107.05 119.425C106.765 119.386 106.474 119.339 106.189 119.265C106.116 119.245 106.041 119.238 105.966 119.231C105.708 119.197 105.447 119.142 105.183 119.1C104.826 119.041 104.459 118.952 104.109 118.852C103.851 118.784 103.584 118.72 103.318 118.657C103.065 118.596 102.828 118.525 102.577 118.45C102.518 118.432 102.453 118.407 102.388 118.381C102.315 118.36 102.245 118.326 102.17 118.319C101.861 118.262 101.559 118.199 101.281 118.05C101.248 118.037 101.208 118.03 101.176 118.017C100.871 117.933 100.559 117.854 100.249 117.762C100.007 117.682 99.7641 117.603 99.524 117.51C99.0762 117.336 98.6259 117.176 98.1807 116.99C97.7354 116.803 97.303 116.584 96.8737 116.386C96.7467 116.321 96.6172 116.269 96.4822 116.209C96.3552 116.144 96.2282 116.079 96.1012 116.013C95.9931 115.959 95.8875 115.89 95.777 115.849C95.4423 115.704 95.1444 115.509 94.8362 115.334C94.7037 115.261 94.5792 115.182 94.4467 115.109C94.3087 115.028 94.1708 114.947 94.0353 114.852C93.7724 114.657 93.491 114.487 93.2042 114.308C92.8361 114.08 92.497 113.809 92.1604 113.524C92.0762 113.453 91.9866 113.374 91.9024 113.302C91.6012 113.052 91.2894 112.82 91.0201 112.548C90.7915 112.318 90.5127 112.134 90.313 111.86C90.1901 111.699 90.0377 111.545 89.8804 111.419C89.7609 111.313 89.6678 111.178 89.5562 111.067C89.2027 110.723 88.9315 110.311 88.6123 109.932C88.1215 109.354 87.652 108.773 87.201 108.168C87.1164 108.062 87.0213 107.975 86.9366 107.869C86.7783 107.673 86.6225 107.463 86.4801 107.256C86.4035 107.144 86.3403 107.035 86.2397 106.94C86.169 106.871 86.1088 106.784 86.0486 106.696C85.9774 106.592 85.9196 106.491 85.8485 106.388C85.4716 105.907 85.1052 105.408 84.7523 104.912C84.5965 104.702 84.4591 104.468 84.3113 104.253C84.043 103.862 83.8201 103.452 83.5837 103.04C83.3363 102.612 83.0994 102.164 82.8601 101.731C82.6097 101.281 82.4023 100.825 82.1893 100.361C82.0316 100.012 81.8684 99.655 81.7187 99.3004C81.6883 99.2391 81.658 99.1778 81.6411 99.1191C81.5606 98.7286 81.36 98.3854 81.2128 98.0173C81.1461 97.8519 81.0954 97.6756 81.0422 97.5127C81.0253 97.454 81.0219 97.3977 81.0025 97.3523C80.8815 97.1422 80.8274 96.9096 80.7572 96.6879C80.6842 96.4448 80.5817 96.2102 80.522 95.9697C80.437 95.6409 80.36 95.3067 80.275 94.978C80.2328 94.8311 80.1825 94.6896 80.1458 94.5506C80.0265 94.0695 79.9097 93.5749 79.7984 93.0882C79.7671 92.9572 79.7493 92.8287 79.7314 92.7002C79.6664 92.2639 79.6014 91.8276 79.5309 91.3833C79.4779 91.0326 79.4437 90.6924 79.412 90.3388C79.3858 89.9931 79.3248 89.6479 79.2851 89.2998C79.2539 88.981 79.2362 88.6647 79.213 88.3405C79.1992 88.1153 79.1719 87.8877 79.1581 87.6626C79.1478 87.3059 79.1321 86.9413 79.1219 86.5847C79.122 86.3969 79.1142 86.2146 79.0983 86.0378C79.0087 85.9586 78.9095 85.9681 78.8129 85.9641C78.5633 85.9596 78.3271 85.9576 78.0846 85.8779C78.0118 85.8575 77.9341 85.864 77.8564 85.8705C77.4463 85.9058 77.0433 85.866 76.6453 85.7993C76.4221 85.7649 76.1964 85.744 75.9657 85.75C75.7216 85.7535 75.4795 85.7087 75.2349 85.6773C75.1059 85.6603 74.9714 85.6354 74.8423 85.6185C74.794 85.6165 74.7457 85.6145 74.7028 85.6205C74.5449 85.6469 74.4049 85.614 74.254 85.5652C74.0761 85.5114 73.8879 85.4766 73.705 85.4497C73.3419 85.3825 72.9917 85.2828 72.636 85.1753C72.4906 85.1344 72.39 85.0393 72.3158 84.9143C72.269 84.8291 72.2626 84.7514 72.3095 84.6488C72.49 84.5014 72.6565 84.3166 72.8828 84.1846C73.117 84.0471 73.286 83.8488 73.4386 83.6267C73.4965 83.54 73.5598 83.4613 73.642 83.3931C73.7083 83.3358 73.7612 83.276 73.8085 83.2083C73.9452 82.9971 74.1306 82.8227 74.3131 82.627C74.5667 82.5348 74.7706 82.3361 74.983 82.1667C75.1714 82.0138 75.3489 81.845 75.5263 81.6761C75.6774 81.5371 75.8175 81.3822 75.9685 81.2433C76.2123 81.0171 76.3963 80.7382 76.6157 80.4936C76.7927 80.2899 76.9642 80.0782 77.1845 79.9034C77.3385 79.7858 77.4841 79.6389 77.6272 79.5054C77.7174 79.4316 77.8051 79.3714 77.9118 79.3216C78.0184 79.2718 78.1111 79.1846 78.2148 79.1134C78.2971 79.0451 78.3659 78.9744 78.4426 78.8982C78.6545 78.694 78.8663 78.4897 79.0702 78.291C79.2053 78.163 79.3295 78.019 79.4536 77.8751C79.5883 77.7122 79.685 77.5284 79.736 77.3292C79.741 77.3023 79.7594 77.2779 79.7724 77.2455C79.8098 77.2315 79.8337 77.2151 79.8765 77.2091C79.9274 77.1977 79.9891 77.2021 80.0454 77.1987C80.3992 77.1668 80.7644 77.1857 81.1176 77.1189C81.2407 77.093 81.3802 77.091 81.5122 77.1294C81.5984 77.1523 81.7 77.1294 81.8126 77.1224C81.9506 77.2036 82.0995 77.3007 82.2619 77.4003C82.2647 77.6095 82.2088 77.8357 82.2944 78.0115C82.3974 78.0932 82.4761 78.1564 82.5523 78.2331C82.8023 78.4602 82.9994 78.7471 83.2149 79.0096C83.2886 79.0998 83.3488 79.1874 83.3906 79.2995C83.4075 79.3583 83.4538 79.4086 83.4922 79.4644C83.6206 79.6342 83.7545 79.812 83.8829 79.9819C83.9322 80.0536 83.9735 80.1308 84.0413 80.1781C84.1797 80.2942 84.2488 80.4461 84.326 80.5925C84.3479 80.6244 84.3538 80.6672 84.3757 80.6991C84.5096 80.8769 84.5822 81.0851 84.6653 81.2744C84.7708 81.5304 84.8922 81.7755 84.9842 82.029C85.0927 82.3064 85.1852 82.5948 85.2776 82.8832C85.3363 83.0541 85.3816 83.2224 85.4323 83.3987C85.4855 83.5616 85.5172 83.7275 85.5196 83.9018C85.6047 84.0427 85.655 84.1842 85.6519 84.3506C85.6543 84.5249 85.697 84.7067 85.7716 84.8666C85.8796 85.1092 85.9208 85.3742 85.9136 85.6371C85.9096 85.7338 85.9055 85.8304 85.896 85.919C85.8222 86.0167 85.7071 86.0371 85.5975 86.0655C85.3997 86.1193 85.1939 86.1786 84.9986 86.2189C84.6428 86.2991 84.2731 86.342 83.9074 86.2882C83.5418 86.2344 83.1716 86.2424 82.8119 86.2314C82.6455 86.2285 82.4686 86.2444 82.3122 86.1876C82.2853 86.1826 82.2584 86.1777 82.2235 86.1782C82.0467 86.1941 81.8853 86.1642 81.7159 86.1398C81.6003 86.1254 81.4957 86.1269 81.4025 86.1792C81.3711 86.236 81.369 86.2843 81.3964 86.3241C81.4566 86.4118 81.4581 86.5164 81.4595 86.621C81.4504 86.7445 81.4494 86.8626 81.4488 87.0155C81.4228 87.0802 81.3919 87.1719 81.345 87.2745C81.3579 87.4299 81.3817 87.6012 81.392 87.7701C81.3994 87.9175 81.4123 88.0729 81.4062 88.2179C81.3945 88.5426 81.4471 88.8584 81.4783 89.1772C81.4942 89.354 81.5449 89.5303 81.5393 89.7101C81.5292 89.9517 81.5778 90.1763 81.5892 90.4149C81.5995 90.5838 81.6099 90.7526 81.6631 90.9155C81.6686 90.9235 81.6661 90.9369 81.6715 90.9449C81.6674 91.2293 81.7409 91.5073 81.7662 91.7832C81.7786 91.9037 81.7909 92.0243 81.8088 92.1528C81.8351 92.3107 81.8828 92.4656 82.0158 92.5737C82.0147 92.6917 82.0351 92.8067 82.0285 92.9168C82.0195 93.0404 82.0453 93.1634 82.1165 93.267C82.1713 93.3467 82.2021 93.4428 82.206 93.534C82.2203 93.794 82.2934 94.037 82.353 94.2776C82.3645 94.3284 82.3784 94.3658 82.3764 94.4141C82.3603 94.6128 82.419 94.7837 82.4911 94.957C82.5329 95.0691 82.5667 95.1866 82.5711 95.3126C82.5655 95.4924 82.6376 95.6658 82.7337 95.8227C82.8407 95.9955 82.8889 96.1853 82.9451 96.3696C82.965 96.4498 82.9928 96.5245 83.0262 96.6072C83.1202 96.8124 83.1714 97.0236 83.1907 97.2567C83.21 97.4898 83.2641 97.7224 83.401 97.9216C83.505 98.073 83.5986 98.2434 83.6787 98.4112C83.7478 98.5631 83.7821 98.7155 83.7497 98.8904C83.8626 99.106 83.9865 99.3377 84.0915 99.5588C84.1413 99.6654 84.1805 99.7909 84.2223 99.903C84.287 100.117 84.37 100.306 84.496 100.489C84.6329 100.688 84.7752 100.896 84.7975 101.15C84.8039 101.228 84.8427 101.319 84.8945 101.377C85.0663 101.576 85.1608 101.816 85.2658 102.037C85.3265 102.159 85.3847 102.295 85.4374 102.423C85.4568 102.469 85.4762 102.514 85.4981 102.546C85.627 102.751 85.7694 102.958 85.8983 103.162C85.9889 103.311 86.074 103.452 86.1511 103.599C86.2447 103.769 86.3676 103.931 86.4771 104.09C86.6907 104.401 86.8723 104.734 87.1018 105.034C87.1292 105.074 87.1566 105.113 87.1839 105.153C87.3019 105.342 87.4253 105.539 87.5911 105.695C87.6862 105.782 87.7549 105.899 87.8396 106.005C87.9272 106.132 87.9963 106.284 88.1238 106.385C88.1427 106.395 88.1457 106.416 88.1566 106.432C88.3497 106.816 88.6624 107.117 88.8954 107.473C88.9392 107.537 88.9909 107.595 89.0452 107.64C89.1214 107.717 89.1921 107.786 89.2364 107.884C89.2558 107.93 89.2911 107.964 89.3185 108.004C89.5311 108.245 89.7517 108.48 89.9483 108.732C90.0493 108.862 90.124 109.022 90.2176 109.193C90.4023 109.359 90.6089 109.557 90.7597 109.794C90.8419 109.913 90.9614 110.019 91.0754 110.117C91.165 110.196 91.2332 110.278 91.283 110.385C91.3133 110.446 91.3517 110.502 91.3925 110.544C91.7161 110.861 92.0398 111.179 92.3315 111.518C92.3724 111.56 92.4157 111.589 92.4645 111.626C92.6572 111.787 92.8579 111.942 93.0217 112.146C93.0953 112.236 93.1795 112.308 93.2636 112.379C93.4454 112.524 93.6326 112.677 93.788 112.852C93.8641 112.928 93.9617 113.002 94.0459 113.073C94.263 113.253 94.4801 113.432 94.7052 113.606C94.8516 113.716 95.003 113.8 95.1574 113.905C95.2495 113.971 95.3442 114.023 95.4363 114.089C95.8212 114.376 96.2326 114.633 96.6569 114.857C97.0623 115.071 97.4732 115.294 97.8841 115.516C98.3787 115.774 98.8783 116.006 99.4017 116.221C99.7041 116.353 100.017 116.467 100.314 116.592C100.689 116.744 101.074 116.878 101.46 117.012C101.611 117.061 101.762 117.11 101.921 117.153C102.594 117.348 103.26 117.547 103.933 117.742C104.461 117.895 104.992 118.035 105.517 118.167C105.702 118.215 105.893 118.237 106.074 118.277C106.919 118.482 107.782 118.628 108.637 118.71C109.367 118.782 110.106 118.85 110.836 118.853C111.177 118.853 111.518 118.854 111.853 118.846C112.167 118.842 112.473 118.843 112.789 118.825C113.148 118.801 113.508 118.777 113.861 118.745C114.397 118.705 114.928 118.622 115.46 118.526C116.137 118.401 116.82 118.284 117.477 118.079C117.921 117.938 118.373 117.827 118.814 117.7C119.49 117.506 120.169 117.297 120.819 117.014C120.902 116.981 120.982 116.961 121.057 116.933C121.103 116.914 121.151 116.916 121.191 116.888C121.606 116.673 122.042 116.538 122.466 116.352C123.018 116.114 123.573 115.862 124.117 115.594C124.338 115.489 124.548 115.368 124.764 115.255C124.865 115.197 124.969 115.16 125.07 115.103C125.177 115.053 125.27 115 125.371 114.943C125.411 114.915 125.451 114.888 125.497 114.868C125.737 114.774 125.955 114.647 126.162 114.505C126.29 114.417 126.415 114.343 126.543 114.255C126.63 114.195 126.716 114.148 126.803 114.088C126.883 114.033 126.974 113.994 127.04 113.937C127.271 113.743 127.535 113.597 127.809 113.467C127.886 113.426 127.956 113.39 128.027 113.341C128.261 113.168 128.506 113.012 128.773 112.887C128.855 112.854 128.938 112.786 128.993 112.713C129.064 112.628 129.149 112.547 129.245 112.481C129.502 112.292 129.765 112.111 130.018 111.915C130.238 111.74 130.447 111.549 130.64 111.334C130.738 111.22 130.86 111.125 130.974 111.035C131.219 110.843 131.468 110.66 131.72 110.463C131.811 110.389 131.893 110.321 131.937 110.197C131.921 110.055 131.823 109.947 131.715 109.857C131.587 109.757 131.526 109.599 131.407 109.494C131.366 109.452 131.351 109.379 131.321 109.318C131.271 109.177 131.213 109.041 131.093 108.935C130.998 108.848 130.964 108.73 130.93 108.613C130.869 108.421 130.767 108.256 130.615 108.102C130.58 107.88 130.491 107.683 130.352 107.497C130.259 107.362 130.176 107.207 130.131 107.039C130.108 106.937 130.056 106.844 129.987 106.762C129.908 106.664 129.851 106.563 129.825 106.44C129.79 106.287 129.724 106.157 129.645 106.024C129.601 105.96 129.565 105.891 129.543 105.824C129.512 105.728 129.526 105.612 129.474 105.519C129.43 105.421 129.383 105.335 129.36 105.234C129.315 105.1 129.241 104.975 129.197 104.842C129.143 104.679 129.082 104.522 128.976 104.384C128.98 104.287 128.976 104.196 128.982 104.086C128.877 103.865 128.78 103.638 128.678 103.403C128.653 103.35 128.641 103.299 128.638 103.243C128.622 103.031 128.56 102.839 128.44 102.664C128.352 102.536 128.331 102.386 128.297 102.234C128.269 102.124 128.24 102.015 128.22 101.9C128.205 101.827 128.186 101.747 128.198 101.68C128.213 101.564 128.184 101.455 128.169 101.348C128.147 101.246 128.132 101.139 128.109 101.037C128.072 100.898 128.041 100.767 127.987 100.57C127.987 100.535 127.991 100.438 127.995 100.376C127.942 100.248 127.906 100.144 127.864 100.032C127.89 99.7798 127.793 99.5531 127.75 99.3016C127.762 99.2344 127.783 99.1616 127.801 99.1024C127.763 98.9285 127.726 98.7547 127.691 98.5674C127.632 98.5146 127.606 98.4265 127.597 98.3273C127.578 98.1291 127.559 97.9309 127.532 97.7381C127.514 97.5747 127.536 97.4188 127.598 97.2704C127.521 97.0891 127.492 96.9098 127.465 96.717C127.435 96.468 127.412 96.2135 127.39 95.9589C127.371 95.7607 127.414 95.5669 127.5 95.3672C127.478 95.3005 127.463 95.2282 127.433 95.167C127.378 95.0524 127.357 94.9374 127.374 94.8084C127.386 94.7062 127.406 94.5986 127.418 94.4965C127.45 94.252 127.481 94.0074 127.4 93.7698C127.383 93.711 127.39 93.6358 127.395 93.5741C127.403 93.3808 127.417 93.1955 127.417 93.0077C127.417 92.6671 127.44 92.3234 127.548 92.0026C127.553 91.9757 127.566 91.9433 127.563 91.9219C127.555 91.7047 127.635 91.497 127.648 91.2769C127.655 91.2017 127.662 91.1265 127.696 91.0562C127.748 90.9267 127.757 90.8032 127.782 90.6687C127.804 90.5477 127.827 90.4266 127.882 90.3186C127.934 90.189 127.98 90.0516 128 89.9091C128.036 89.6028 128.163 89.3273 128.283 89.0574C128.299 89.0115 128.333 88.9762 128.335 88.9279C128.378 88.7341 128.464 88.5692 128.599 88.4412C128.634 88.4059 128.649 88.36 128.67 88.3222C128.79 88.0522 128.902 87.7877 128.989 87.5048C129.068 87.2274 129.256 87.0047 129.46 86.806C129.553 86.7188 129.659 86.6341 129.77 86.5574C129.874 86.4862 129.959 86.4045 130.022 86.2909C130.11 86.1126 130.253 85.9791 130.41 85.8481C130.638 85.6678 130.886 85.4979 131.15 85.3869C131.4 85.2733 131.659 85.1891 131.924 85.1129C132.325 85.0133 132.732 84.9216 133.13 84.8006C133.277 84.7582 133.424 84.7507 133.575 84.7647C133.994 84.7936 134.385 84.9355 134.757 85.067C134.903 85.1776 134.938 85.33 134.966 85.4744C135.2 85.6776 135.411 85.7793 135.733 85.839C135.971 85.9805 136.175 86.1573 136.368 86.353C136.45 86.4377 136.537 86.5303 136.608 86.6339C136.669 86.7216 136.731 86.7958 136.834 86.8426C136.955 86.8999 137.035 86.998 137.095 87.1206C137.209 87.3711 137.362 87.5942 137.606 87.7437C137.768 87.8433 137.914 87.9538 138.059 88.1127C138.092 88.1954 138.131 88.2861 138.17 88.3767C138.281 88.4878 138.387 88.5909 138.528 88.6586C138.611 88.695 138.663 88.7532 138.712 88.825C138.805 88.9604 138.909 89.077 138.97 89.2344C138.979 89.2638 138.987 89.2932 139.011 89.3116C139.207 89.4939 139.248 89.7589 139.367 89.9825C139.372 89.9905 139.378 89.9984 139.383 90.0064C139.415 90.2071 139.538 90.369 139.656 90.5229C139.667 90.5389 139.67 90.5603 139.698 90.635C139.695 90.6484 139.68 90.7292 139.663 90.8233C139.657 90.8153 139.668 90.8313 139.674 90.8392C139.723 90.9109 139.767 90.9747 139.808 91.0519C139.855 91.1371 139.872 91.2307 139.927 91.3104C140.02 91.4459 140.049 91.5903 139.994 91.7333C140.02 91.8215 140.048 91.8962 140.081 91.9789C140.146 92.0396 140.206 92.0924 140.277 92.1611C140.286 92.2254 140.3 92.2976 140.306 92.3753C140.305 92.4585 140.309 92.5497 140.302 92.6249C140.285 92.7887 140.298 92.9441 140.418 93.0846C140.358 93.5603 140.533 94.0031 140.64 94.3985C140.615 94.7208 140.586 94.9868 140.577 95.2632C140.57 95.3385 140.59 95.4186 140.612 95.4854C140.668 95.6348 140.675 95.7823 140.634 95.9277C140.591 96.0866 140.595 96.2475 140.657 96.4049C140.723 96.5702 140.707 96.7341 140.615 96.891C140.534 97.029 140.504 97.1904 140.482 97.3463C140.472 97.4349 140.471 97.5181 140.504 97.6008C140.574 97.7876 140.555 97.9649 140.512 98.1586C140.453 98.3982 140.389 98.6298 140.385 98.8794C140.384 98.9974 140.35 99.1025 140.284 99.1947C140.174 99.3411 140.117 99.4975 140.122 99.6933C140.13 99.9104 140.042 100.124 139.964 100.318C139.876 100.566 139.775 100.811 139.72 101.072C139.68 101.288 139.64 101.503 139.503 101.679C139.455 101.747 139.432 101.833 139.404 101.911C139.326 102.106 139.243 102.292 139.197 102.499C139.154 102.693 139.068 102.858 138.965 102.999C138.926 103.284 138.784 103.522 138.651 103.754C138.538 103.949 138.444 104.154 138.294 104.328C138.259 104.363 138.233 104.428 138.218 104.474C138.17 104.695 138.027 104.863 137.904 105.042C137.875 105.085 137.848 105.115 137.814 105.15C137.531 105.439 137.307 105.78 137.103 106.132C137.082 106.17 137.053 106.213 137.038 106.259C136.992 106.431 136.891 106.559 136.808 106.71C136.624 107.024 136.351 107.258 136.108 107.519C135.996 107.631 135.896 107.758 135.79 107.878C135.695 107.979 135.592 108.085 135.502 108.193C135.449 108.253 135.389 108.318 135.341 108.386C135.155 108.678 134.898 108.902 134.676 109.16C134.544 109.31 134.39 109.427 134.238 109.566C134.269 109.662 134.235 109.698 134.206 109.741ZM133.465 108.748C133.575 108.755 133.637 108.724 133.682 108.67C133.766 108.553 133.837 108.434 133.921 108.318C133.997 108.207 134.068 108.088 134.166 108.009C134.402 107.823 134.595 107.608 134.788 107.393C134.905 107.255 135.032 107.132 135.148 106.994C135.272 106.85 135.383 106.704 135.496 106.544C135.64 106.327 135.817 106.123 135.924 105.886C135.974 105.77 136.069 105.669 136.145 105.558C136.185 105.496 136.256 105.446 136.282 105.382C136.363 105.209 136.474 105.062 136.574 104.9C136.681 104.732 136.776 104.562 136.878 104.386C136.912 104.35 136.979 104.363 136.97 104.299C136.973 104.25 136.975 104.202 136.995 104.164C137.111 103.956 137.212 103.745 137.333 103.545C137.483 103.302 137.605 103.053 137.698 102.778C137.727 102.7 137.755 102.622 137.792 102.538C137.885 102.333 137.979 102.127 138.068 101.914C138.265 101.415 138.397 100.89 138.562 100.378C138.618 100.187 138.648 99.9907 138.691 99.7969C138.744 99.5842 138.816 99.382 138.779 99.1733C138.852 99.0059 138.914 98.8575 138.968 98.7146C139.046 98.5203 139.07 98.3161 139.046 98.1099C139.039 98.0322 139.052 97.9649 139.059 97.8897C139.073 97.7393 139.087 97.5889 139.101 97.4384C139.113 97.3363 139.112 97.2317 139.124 97.1296C139.142 96.9174 139.169 96.6998 139.182 96.4796C139.191 96.1683 139.187 95.8545 139.188 95.5487C139.187 95.4789 139.186 95.4092 139.169 95.3504C139.102 95.1502 139.113 94.9435 139.11 94.7343C139.111 94.6511 139.107 94.56 139.087 94.4798C139.007 94.0544 138.968 93.6231 138.853 93.1982C138.719 92.6797 138.624 92.1473 138.432 91.6457C138.329 91.3762 138.25 91.0903 138.08 90.8433C137.987 90.7078 137.942 90.5394 137.888 90.3765C137.874 90.3392 137.892 90.2799 137.889 90.2585C137.835 90.2137 137.77 90.1878 137.732 90.132C137.653 90.0339 137.603 89.9273 137.532 89.8237C137.494 89.7679 137.471 89.7012 137.422 89.6643C137.238 89.4979 137.101 89.2987 136.951 89.097C136.833 88.9431 136.713 88.8026 136.577 88.6731C136.428 88.5411 136.302 88.3927 136.161 88.2552C135.962 88.0515 135.764 87.8478 135.562 87.6575C135.426 87.528 135.275 87.4095 135.131 87.2855C134.653 86.8631 134.609 86.8342 133.99 86.4622C133.89 86.4019 133.787 86.3202 133.705 86.2356C133.629 86.1588 133.55 86.0956 133.453 86.0567C133.329 86.0129 133.21 85.9422 133.086 85.8984C132.644 85.733 132.644 85.733 132.213 85.8062C132.191 85.8092 132.175 85.8202 132.151 85.8366C132.1 86.001 131.97 86.137 131.821 86.2276C131.757 86.2714 131.713 86.3258 131.66 86.3855C131.499 86.5783 131.373 86.8054 131.198 86.9957C131.077 87.1262 130.955 87.2567 130.953 87.4579C130.95 87.4714 130.94 87.4903 130.929 87.5092C130.846 87.6955 130.749 87.8793 130.671 88.0736C130.624 88.1762 130.583 88.2868 130.563 88.3944C130.523 88.6095 130.445 88.8038 130.313 88.9881C130.229 89.1046 130.177 89.2341 130.12 89.3557C130.129 89.4548 130.141 89.5405 130.148 89.6182C130.096 89.7477 130.046 89.8637 130.048 90.0032C130.049 90.0381 130.041 90.0784 130.02 90.1163C129.957 90.2298 129.948 90.3534 129.934 90.4689C129.902 90.6786 129.886 90.8774 129.84 91.0846C129.8 91.2649 129.778 91.4556 129.792 91.6459C129.798 91.7236 129.778 91.7963 129.771 91.8715C129.747 92.1106 129.694 92.3582 129.711 92.6047C129.721 92.7387 129.715 92.8837 129.668 93.0211C129.642 93.0859 129.641 93.1691 129.647 93.2468C129.647 93.6572 129.64 94.0731 129.57 94.4845C129.568 94.498 129.563 94.5249 129.566 94.5463C129.607 94.6584 129.579 94.7714 129.586 94.884C129.591 95.01 129.59 95.128 129.615 95.2511C129.647 95.3821 129.665 95.5106 129.653 95.6476C129.635 95.8597 129.667 96.0605 129.699 96.2612C129.743 96.5476 129.737 96.8455 129.824 97.1259C129.835 97.1767 129.83 97.2385 129.834 97.2948C129.834 97.6703 129.874 98.0533 129.959 98.4169C129.988 98.5614 129.998 98.6954 130 98.8348C130 99.0226 130.021 99.2074 130.085 99.3862C130.122 99.4903 130.142 99.6054 130.149 99.7179C130.159 99.8519 130.184 99.9749 130.237 100.103C130.279 100.215 130.305 100.338 130.331 100.461C130.352 100.611 130.359 100.758 130.372 100.914C130.393 101.064 130.413 101.214 130.485 101.352C130.51 101.405 130.553 101.434 130.586 101.482C130.587 101.552 130.583 101.614 130.584 101.683C130.625 101.761 130.666 101.838 130.683 101.862C130.74 102.304 130.785 102.695 131.015 103.029C131.033 103.123 131.031 103.206 131.051 103.286C131.085 103.404 131.14 103.518 131.174 103.636C131.213 103.761 131.223 103.895 131.27 104.015C131.331 104.173 131.422 104.322 131.491 104.474C131.541 104.58 131.596 104.695 131.622 104.818C131.691 105.192 131.894 105.522 132.009 105.877C132.235 106.274 132.407 106.695 132.68 107.059C132.708 107.099 132.727 107.144 132.746 107.189C132.693 107.402 132.765 107.575 132.917 107.729C132.947 107.755 132.961 107.792 132.991 107.819C133.062 107.922 133.12 108.024 133.146 108.147C133.189 108.328 133.306 108.482 133.408 108.647C133.354 108.672 133.424 108.706 133.465 108.748ZM79.1865 85.2264C79.199 85.1591 79.214 85.0785 79.2265 85.0112C79.261 84.7881 79.309 84.5674 79.33 84.3418C79.3466 84.1779 79.3711 84.0086 79.3338 83.8347C79.2971 83.6958 79.3086 83.5588 79.3496 83.4133C79.3805 83.3217 79.387 83.2116 79.407 83.104C79.4845 82.6871 79.4733 82.2608 79.5643 81.8463C79.5718 81.806 79.5713 81.7711 79.5708 81.7363C79.5799 81.6127 79.5754 81.4867 79.5979 81.3657C79.6375 81.1157 79.677 80.8656 79.6682 80.6136C79.6642 80.5224 79.6817 80.4283 79.6833 80.3451C79.5857 80.2714 79.5004 80.3182 79.4312 80.3541C79.2821 80.4447 79.1306 80.5488 78.9925 80.6554C78.7722 80.8303 78.6037 81.0634 78.3645 81.2278C78.3405 81.2442 78.3221 81.2686 78.3116 81.2875C78.1556 81.4534 78.0184 81.6297 77.8514 81.7796C77.6924 81.9241 77.5608 82.1084 77.3849 82.1941C77.3086 82.3052 77.2562 82.3998 77.1849 82.484C76.9869 82.7255 76.8323 82.996 76.6045 83.2112C76.5965 83.2167 76.5941 83.2301 76.5861 83.2356C76.4494 83.4468 76.2909 83.6261 76.1134 83.795C75.8617 84.0266 75.6398 84.2846 75.3607 84.4764C75.273 84.5366 75.2042 84.6074 75.1274 84.6836C75.085 84.7244 75.0671 84.7837 75.1054 84.8395C75.1547 84.9112 75.2379 84.9127 75.3131 84.9197C75.8078 84.9904 76.3025 85.0611 76.7996 85.1184C76.9556 85.1403 77.119 85.1218 77.2699 85.1706C77.2968 85.1756 77.3262 85.1672 77.3531 85.1722C77.6889 85.1995 78.0272 85.2135 78.3684 85.2488C78.621 85.2747 78.8781 85.2389 79.1302 85.2299C79.1387 85.2593 79.1546 85.2483 79.1865 85.2264ZM81.4184 85.3822C81.526 85.4022 81.5987 85.4226 81.666 85.435C81.9131 85.453 82.1602 85.4709 82.3938 85.4863C82.5792 85.4998 82.7645 85.5132 82.9578 85.5212C83.0814 85.5301 83.2074 85.5257 83.3116 85.4893C83.4576 85.3772 83.4502 85.2298 83.392 85.0938C83.2672 84.7925 83.228 84.4792 83.1325 84.1693C83.04 83.8809 83.0198 83.5781 82.8765 83.3012C82.7602 82.8414 82.5906 82.4066 82.4075 81.9693C82.3269 81.7666 82.2304 81.5748 82.1418 81.3776C82.106 81.3084 82.0672 81.2177 81.9516 81.2032C81.8694 81.2715 81.7981 81.3557 81.7835 81.4712C81.7645 81.6486 81.7375 81.8313 81.7184 82.0087C81.7114 82.0839 81.7124 82.1536 81.6919 82.2263C81.646 82.3987 81.6135 82.5735 81.6427 82.7528C81.6487 82.7956 81.6387 82.8494 81.6367 82.8978C81.6031 83.1906 81.5641 83.4755 81.525 83.7604C81.523 83.8088 81.521 83.8571 81.519 83.9054C81.4949 84.1096 81.4764 84.3218 81.4523 84.526C81.4433 84.6496 81.4208 84.7706 81.4117 84.8941C81.4166 85.055 81.424 85.2024 81.4184 85.3822Z" fill="url(#paint1_linear_188_50)" shape-rendering="crispEdges"/>
</g>
<g filter="url(#filter4_d_188_50)">
<circle cx="195.462" cy="44.4621" r="7" transform="rotate(3.91934 195.462 44.4621)" fill="#7C2BDA"/>
</g>
<g filter="url(#filter5_d_188_50)">
<rect x="207.924" y="40.4622" width="39" height="8" rx="4" fill="#7C2BDA"/>
</g>
<rect x="165.5" y="110.5" width="111" height="33" rx="3.5" fill="white" stroke="#F0F3FA"/>
<g filter="url(#filter6_d_188_50)">
<circle cx="195.462" cy="127.462" r="7" transform="rotate(3.91934 195.462 127.462)" fill="#FF7A00"/>
</g>
<g filter="url(#filter7_d_188_50)">
<rect x="207.924" y="123.462" width="39" height="8" rx="4" fill="#FF7A00"/>
</g>
<rect x="165.5" y="152.5" width="111" height="33" rx="3.5" fill="white" stroke="#F0F3FA"/>
<g filter="url(#filter8_d_188_50)">
<circle cx="195.462" cy="169.462" r="7" transform="rotate(3.91934 195.462 169.462)" fill="#12AAFF"/>
</g>
<g filter="url(#filter9_d_188_50)">
<rect x="207.924" y="165.462" width="39" height="8" rx="4" fill="#12AAFF"/>
</g>
<rect x="20" y="149.049" width="9.73171" height="38.9268" rx="1.62195" fill="url(#paint2_linear_188_50)"/>
<rect x="50.8171" y="136.884" width="9.73171" height="51.0915" rx="1.62195" fill="url(#paint3_linear_188_50)"/>
<rect x="81.6342" y="124.719" width="9.73171" height="63.2561" rx="1.62195" fill="url(#paint4_linear_188_50)"/>
<rect x="112.451" y="146.616" width="9.73171" height="41.3598" rx="1.62195" fill="url(#paint5_linear_188_50)"/>
<rect x="143.268" y="144.183" width="9.73171" height="43.7927" rx="1.62195" fill="url(#paint6_linear_188_50)"/>
<defs>
<filter id="filter0_d_188_50" x="232.017" y="71.6754" width="17.5748" height="19.6609" filterUnits="userSpaceOnUse" color-interpolation-filters="sRGB">
<feFlood flood-opacity="0" result="BackgroundImageFix"/>
<feColorMatrix in="SourceAlpha" type="matrix" values="0 0 0 0 0 0 0 0 0 0 0 0 0 0 0 0 0 0 127 0" result="hardAlpha"/>
<feMorphology radius="2" operator="erode" in="SourceAlpha" result="effect1_dropShadow_188_50"/>
<feOffset dy="4"/>
<feGaussianBlur stdDeviation="2"/>
<feComposite in2="hardAlpha" operator="out"/>
<feColorMatrix type="matrix" values="0 0 0 0 0 0 0 0 0 0 0 0 0 0 0 0 0 0 0.05 0"/>
<feBlend mode="normal" in2="BackgroundImageFix" result="effect1_dropShadow_188_50"/>
<feBlend mode="normal" in="SourceGraphic" in2="effect1_dropShadow_188_50" result="shape"/>
</filter>
<filter id="filter1_d_188_50" x="250.739" y="64.0997" width="42.2457" height="20.8064" filterUnits="userSpaceOnUse" color-interpolation-filters="sRGB">
<feFlood flood-opacity="0" result="BackgroundImageFix"/>
<feColorMatrix in="SourceAlpha" type="matrix" values="0 0 0 0 0 0 0 0 0 0 0 0 0 0 0 0 0 0 127 0" result="hardAlpha"/>
<feMorphology radius="2" operator="erode" in="SourceAlpha" result="effect1_dropShadow_188_50"/>
<feOffset dy="4"/>
<feGaussianBlur stdDeviation="2"/>
<feComposite in2="hardAlpha" operator="out"/>
<feColorMatrix type="matrix" values="0 0 0 0 0 0 0 0 0 0 0 0 0 0 0 0 0 0 0.05 0"/>
<feBlend mode="normal" in2="BackgroundImageFix" result="effect1_dropShadow_188_50"/>
<feBlend mode="normal" in="SourceGraphic" in2="effect1_dropShadow_188_50" result="shape"/>
</filter>
<filter id="filter2_d_188_50" x="18.0001" y="24" width="135.228" height="45.6819" filterUnits="userSpaceOnUse" color-interpolation-filters="sRGB">
<feFlood flood-opacity="0" result="BackgroundImageFix"/>
<feColorMatrix in="SourceAlpha" type="matrix" values="0 0 0 0 0 0 0 0 0 0 0 0 0 0 0 0 0 0 127 0" result="hardAlpha"/>
<feMorphology radius="2" operator="erode" in="SourceAlpha" result="effect1_dropShadow_188_50"/>
<feOffset dy="4"/>
<feGaussianBlur stdDeviation="2"/>
<feComposite in2="hardAlpha" operator="out"/>
<feColorMatrix type="matrix" values="0 0 0 0 0 0 0 0 0 0 0 0 0 0 0 0 0 0 0.05 0"/>
<feBlend mode="normal" in2="BackgroundImageFix" result="effect1_dropShadow_188_50"/>
<feBlend mode="normal" in="SourceGraphic" in2="effect1_dropShadow_188_50" result="shape"/>
</filter>
<filter id="filter3_d_188_50" x="70.2774" y="77.1" width="105.316" height="48.5282" filterUnits="userSpaceOnUse" color-interpolation-filters="sRGB">
<feFlood flood-opacity="0" result="BackgroundImageFix"/>
<feColorMatrix in="SourceAlpha" type="matrix" values="0 0 0 0 0 0 0 0 0 0 0 0 0 0 0 0 0 0 127 0" result="hardAlpha"/>
<feMorphology radius="2" operator="erode" in="SourceAlpha" result="effect1_dropShadow_188_50"/>
<feOffset dy="4"/>
<feGaussianBlur stdDeviation="2"/>
<feComposite in2="hardAlpha" operator="out"/>
<feColorMatrix type="matrix" values="0 0 0 0 0 0 0 0 0 0 0 0 0 0 0 0 0 0 0.05 0"/>
<feBlend mode="normal" in2="BackgroundImageFix" result="effect1_dropShadow_188_50"/>
<feBlend mode="normal" in="SourceGraphic" in2="effect1_dropShadow_188_50" result="shape"/>
</filter>
<filter id="filter4_d_188_50" x="186.462" y="37.4619" width="18.0005" height="20.0005" filterUnits="userSpaceOnUse" color-interpolation-filters="sRGB">
<feFlood flood-opacity="0" result="BackgroundImageFix"/>
<feColorMatrix in="SourceAlpha" type="matrix" values="0 0 0 0 0 0 0 0 0 0 0 0 0 0 0 0 0 0 127 0" result="hardAlpha"/>
<feMorphology radius="2" operator="erode" in="SourceAlpha" result="effect1_dropShadow_188_50"/>
<feOffset dy="4"/>
<feGaussianBlur stdDeviation="2"/>
<feComposite in2="hardAlpha" operator="out"/>
<feColorMatrix type="matrix" values="0 0 0 0 0 0 0 0 0 0 0 0 0 0 0 0 0 0 0.05 0"/>
<feBlend mode="normal" in2="BackgroundImageFix" result="effect1_dropShadow_188_50"/>
<feBlend mode="normal" in="SourceGraphic" in2="effect1_dropShadow_188_50" result="shape"/>
</filter>
<filter id="filter5_d_188_50" x="205.924" y="40.4622" width="43" height="14" filterUnits="userSpaceOnUse" color-interpolation-filters="sRGB">
<feFlood flood-opacity="0" result="BackgroundImageFix"/>
<feColorMatrix in="SourceAlpha" type="matrix" values="0 0 0 0 0 0 0 0 0 0 0 0 0 0 0 0 0 0 127 0" result="hardAlpha"/>
<feMorphology radius="2" operator="erode" in="SourceAlpha" result="effect1_dropShadow_188_50"/>
<feOffset dy="4"/>
<feGaussianBlur stdDeviation="2"/>
<feComposite in2="hardAlpha" operator="out"/>
<feColorMatrix type="matrix" values="0 0 0 0 0 0 0 0 0 0 0 0 0 0 0 0 0 0 0.05 0"/>
<feBlend mode="normal" in2="BackgroundImageFix" result="effect1_dropShadow_188_50"/>
<feBlend mode="normal" in="SourceGraphic" in2="effect1_dropShadow_188_50" result="shape"/>
</filter>
<filter id="filter6_d_188_50" x="186.462" y="120.462" width="18.0005" height="20.0006" filterUnits="userSpaceOnUse" color-interpolation-filters="sRGB">
<feFlood flood-opacity="0" result="BackgroundImageFix"/>
<feColorMatrix in="SourceAlpha" type="matrix" values="0 0 0 0 0 0 0 0 0 0 0 0 0 0 0 0 0 0 127 0" result="hardAlpha"/>
<feMorphology radius="2" operator="erode" in="SourceAlpha" result="effect1_dropShadow_188_50"/>
<feOffset dy="4"/>
<feGaussianBlur stdDeviation="2"/>
<feComposite in2="hardAlpha" operator="out"/>
<feColorMatrix type="matrix" values="0 0 0 0 0 0 0 0 0 0 0 0 0 0 0 0 0 0 0.05 0"/>
<feBlend mode="normal" in2="BackgroundImageFix" result="effect1_dropShadow_188_50"/>
<feBlend mode="normal" in="SourceGraphic" in2="effect1_dropShadow_188_50" result="shape"/>
</filter>
<filter id="filter7_d_188_50" x="205.924" y="123.462" width="43" height="14" filterUnits="userSpaceOnUse" color-interpolation-filters="sRGB">
<feFlood flood-opacity="0" result="BackgroundImageFix"/>
<feColorMatrix in="SourceAlpha" type="matrix" values="0 0 0 0 0 0 0 0 0 0 0 0 0 0 0 0 0 0 127 0" result="hardAlpha"/>
<feMorphology radius="2" operator="erode" in="SourceAlpha" result="effect1_dropShadow_188_50"/>
<feOffset dy="4"/>
<feGaussianBlur stdDeviation="2"/>
<feComposite in2="hardAlpha" operator="out"/>
<feColorMatrix type="matrix" values="0 0 0 0 0 0 0 0 0 0 0 0 0 0 0 0 0 0 0.05 0"/>
<feBlend mode="normal" in2="BackgroundImageFix" result="effect1_dropShadow_188_50"/>
<feBlend mode="normal" in="SourceGraphic" in2="effect1_dropShadow_188_50" result="shape"/>
</filter>
<filter id="filter8_d_188_50" x="186.462" y="162.462" width="18.0005" height="20.0006" filterUnits="userSpaceOnUse" color-interpolation-filters="sRGB">
<feFlood flood-opacity="0" result="BackgroundImageFix"/>
<feColorMatrix in="SourceAlpha" type="matrix" values="0 0 0 0 0 0 0 0 0 0 0 0 0 0 0 0 0 0 127 0" result="hardAlpha"/>
<feMorphology radius="2" operator="erode" in="SourceAlpha" result="effect1_dropShadow_188_50"/>
<feOffset dy="4"/>
<feGaussianBlur stdDeviation="2"/>
<feComposite in2="hardAlpha" operator="out"/>
<feColorMatrix type="matrix" values="0 0 0 0 0 0 0 0 0 0 0 0 0 0 0 0 0 0 0.05 0"/>
<feBlend mode="normal" in2="BackgroundImageFix" result="effect1_dropShadow_188_50"/>
<feBlend mode="normal" in="SourceGraphic" in2="effect1_dropShadow_188_50" result="shape"/>
</filter>
<filter id="filter9_d_188_50" x="205.924" y="165.462" width="43" height="14" filterUnits="userSpaceOnUse" color-interpolation-filters="sRGB">
<feFlood flood-opacity="0" result="BackgroundImageFix"/>
<feColorMatrix in="SourceAlpha" type="matrix" values="0 0 0 0 0 0 0 0 0 0 0 0 0 0 0 0 0 0 127 0" result="hardAlpha"/>
<feMorphology radius="2" operator="erode" in="SourceAlpha" result="effect1_dropShadow_188_50"/>
<feOffset dy="4"/>
<feGaussianBlur stdDeviation="2"/>
<feComposite in2="hardAlpha" operator="out"/>
<feColorMatrix type="matrix" values="0 0 0 0 0 0 0 0 0 0 0 0 0 0 0 0 0 0 0.05 0"/>
<feBlend mode="normal" in2="BackgroundImageFix" result="effect1_dropShadow_188_50"/>
<feBlend mode="normal" in="SourceGraphic" in2="effect1_dropShadow_188_50" result="shape"/>
</filter>
<linearGradient id="paint0_linear_188_50" x1="-0.455781" y1="20.4714" x2="67.3544" y2="-46.3364" gradientUnits="userSpaceOnUse">
<stop stop-color="#4285F4"/>
<stop offset="0.541667" stop-color="#9B72CB"/>
<stop offset="1" stop-color="#D96570"/>
</linearGradient>
<linearGradient id="paint1_linear_188_50" x1="81.8227" y1="78.4442" x2="173.406" y2="91.1943" gradientUnits="userSpaceOnUse">
<stop offset="0.394769" stop-color="#FECF08"/>
<stop offset="1" stop-color="#FECF08" stop-opacity="0"/>
</linearGradient>
<linearGradient id="paint2_linear_188_50" x1="21.3651" y1="158.348" x2="21.3651" y2="187.976" gradientUnits="userSpaceOnUse">
<stop stop-color="#52ACFF"/>
<stop offset="1" stop-color="#FFE32C"/>
</linearGradient>
<linearGradient id="paint3_linear_188_50" x1="55.6829" y1="111.338" x2="36.9009" y2="114.916" gradientUnits="userSpaceOnUse">
<stop stop-color="#FF5ACD"/>
<stop offset="1" stop-color="#FAD961"/>
</linearGradient>
<linearGradient id="paint4_linear_188_50" x1="93.1589" y1="176.481" x2="67.4518" y2="165.599" gradientUnits="userSpaceOnUse">
<stop stop-color="#21D4FD"/>
<stop offset="1" stop-color="#B721FF"/>
</linearGradient>
<linearGradient id="paint5_linear_188_50" x1="115.611" y1="111.436" x2="90.6489" y2="119.368" gradientUnits="userSpaceOnUse">
<stop stop-color="#FF5ACD"/>
<stop offset="1" stop-color="#FAD961"/>
</linearGradient>
<linearGradient id="paint6_linear_188_50" x1="156.849" y1="160.106" x2="142.033" y2="157.059" gradientUnits="userSpaceOnUse">
<stop stop-color="#F4D03F"/>
<stop offset="1" stop-color="#16A085"/>
</linearGradient>
</defs>
</svg>
