<svg width="36" height="41" viewBox="0 0 36 41" fill="none" xmlns="http://www.w3.org/2000/svg">
<path d="M35.1149 25.173C35.0371 23.8869 34.8817 22.6066 34.6495 21.3393C34.4106 19.9231 34.0227 18.5362 33.4922 17.2016C33.1826 16.3882 32.7604 15.6221 32.238 14.9259C31.8974 14.4726 31.4713 14.0904 30.9838 13.801C30.6271 13.5786 30.2195 13.4511 29.7996 13.4307C29.3798 13.4104 28.9618 13.4978 28.5852 13.6846C28.3137 13.1866 27.962 12.7367 27.5444 12.3529C26.8153 11.6909 25.9944 11.1378 25.107 10.7107C24.4032 10.3518 23.6673 10.0596 22.9089 9.83794L23.0447 9.72158C23.5276 9.24679 23.945 8.70977 24.286 8.12471C24.648 7.517 25.0036 6.90282 25.3786 6.30804C25.7341 5.75529 26.1699 5.25851 26.6716 4.83401C26.842 4.66956 27.0645 4.56984 27.3006 4.55213C27.5367 4.53442 27.7716 4.59984 27.9646 4.73704C28.1914 4.8628 28.3913 5.03194 28.5529 5.23484C28.7805 5.52736 28.9495 5.86101 29.0507 6.21752C29.1089 6.41147 29.0507 6.45027 28.8503 6.48906C28.7525 6.49781 28.6553 6.51293 28.5594 6.53432C28.1458 6.61191 27.7703 6.82586 27.4926 7.14201C27.3843 7.26239 27.3156 7.41322 27.2959 7.57399C27.2763 7.73477 27.3066 7.89771 27.3828 8.04066C27.4569 8.18662 27.5763 8.3046 27.7232 8.37688C27.8701 8.44915 28.0365 8.47182 28.1973 8.44149C28.6909 8.40912 29.1534 8.18943 29.4903 7.82732C29.5485 7.75621 29.5938 7.65923 29.736 7.67862C30.0542 8.49919 30.3198 9.33918 30.5312 10.1935C30.7096 9.95999 30.8031 9.67269 30.7963 9.37893C30.7933 8.73238 30.6953 8.08976 30.5054 7.47174C30.4629 7.29865 30.3681 7.14287 30.2338 7.02565C30.1495 6.96438 30.0854 6.87936 30.0497 6.78147C30.014 6.68358 30.0083 6.57726 30.0334 6.47611C30.0431 6.39667 30.0431 6.31635 30.0334 6.23691C30.0338 5.958 29.9774 5.68195 29.8676 5.42552C29.7579 5.1691 29.5971 4.93768 29.3951 4.74536C29.1931 4.55304 28.9541 4.40382 28.6927 4.30681C28.4312 4.20979 28.1526 4.167 27.8741 4.18103C27.0422 4.2042 26.248 4.53337 25.6437 5.10553C25.2539 5.46722 24.9127 5.87796 24.6286 6.32743C24.2278 6.97393 23.8722 7.62043 23.5167 8.29926C23.2572 8.78009 22.9519 9.23476 22.6051 9.65692C22.5455 9.60806 22.4951 9.54895 22.4564 9.48237C22.1622 9.01907 21.9153 8.5274 21.7194 8.0148C21.5836 7.65275 21.4543 7.29072 21.325 6.92867C21.184 6.49819 20.9885 6.08756 20.7431 5.70679C20.4412 5.18687 19.9859 4.77299 19.4397 4.52184C18.8934 4.2707 18.2829 4.19456 17.6916 4.30387C17.3943 4.34912 17.0904 4.41378 16.793 4.47197C16.2254 4.5925 15.6407 4.61001 15.0668 4.52368C14.4665 4.43884 13.8917 4.2243 13.3826 3.89495C12.8735 3.5656 12.4423 3.12933 12.1188 2.61648C11.9054 2.27384 11.7244 1.9118 11.5175 1.56915C11.3107 1.2265 11.1426 0.967904 10.9357 0.683443C10.9034 0.634296 10.8607 0.592744 10.8108 0.561631C10.7609 0.530518 10.7048 0.510584 10.6465 0.503211C10.5881 0.495839 10.5288 0.501196 10.4727 0.518916C10.4166 0.536637 10.365 0.566302 10.3215 0.605865L10.2504 0.664048C9.89949 1.02071 9.58939 1.41536 9.32588 1.84069C9.2213 2.02502 9.17826 2.23792 9.20304 2.44841C9.22128 2.62366 9.25592 2.79681 9.30649 2.9656C9.66961 4.09755 10.4057 5.07298 11.3947 5.73264C12.0955 6.25125 12.8903 6.6289 13.735 6.84463C14.207 6.961 14.6725 7.07738 15.1444 7.18082L16.4374 7.47821C16.6786 7.50782 16.9045 7.61175 17.0839 7.77559C17.0493 7.99173 16.9578 8.19477 16.8189 8.36391C16.6443 8.61605 16.4439 8.84879 16.2823 9.10739C16.2328 9.18129 16.1741 9.24863 16.1077 9.3078C15.8585 9.09776 15.5769 8.92964 15.2737 8.81C14.5899 8.55931 13.8537 8.4859 13.1338 8.59665C12.6249 8.66802 12.12 8.76513 11.621 8.88758C11.3547 8.95118 11.0848 8.99868 10.8129 9.02981C10.107 9.11655 9.39068 9.01391 8.73756 8.73243C8.71814 8.70108 8.69021 8.67591 8.657 8.65988C8.6238 8.64385 8.58671 8.63761 8.55009 8.64191C8.53306 8.60988 8.50647 8.58396 8.47403 8.56774C8.44159 8.55152 8.4049 8.54582 8.36907 8.55141C8.3516 8.51938 8.32516 8.49314 8.29301 8.47592C8.26085 8.45869 8.22438 8.45124 8.18805 8.45443C7.75619 8.21069 7.36021 7.90826 7.0114 7.55578C7.16134 7.94597 7.44876 8.26787 7.81953 8.46089C8.35693 8.86958 8.95452 9.19237 9.59095 9.41772C9.79027 9.48216 9.99636 9.52338 10.2051 9.54056C10.8621 9.60416 11.5243 9.58678 12.177 9.48882C12.8808 9.40908 13.5895 9.38099 14.2975 9.40478C14.6313 9.41497 14.962 9.47155 15.2802 9.57287C14.559 9.69171 13.851 9.88007 13.1661 10.1353C11.7997 10.6376 10.5581 11.4293 9.52629 12.4563C9.40278 12.588 9.28626 12.7261 9.1772 12.87C9.11255 12.8377 9.05436 12.7925 8.99618 12.7601C8.75763 12.6214 8.49394 12.5313 8.22036 12.4951C7.62609 12.4242 7.02347 12.4951 6.46187 12.702C5.61746 13.0322 4.86866 13.5677 4.28316 14.26C3.80293 14.8057 3.39647 15.4122 3.0742 16.0638C2.78327 16.6586 2.50526 17.2598 2.25312 17.8675C1.8495 18.904 1.51687 19.9667 1.25752 21.0483C0.958534 22.2206 0.812924 23.4267 0.824355 24.6364C0.823641 26.1541 0.959963 27.6688 1.23166 29.162C1.50968 30.6219 2.02046 32.0276 2.74447 33.3254C3.45097 34.5723 4.39292 35.6702 5.51798 36.5579C6.07069 37.028 6.66588 37.4458 7.29587 37.8057C8.5947 38.5245 9.97228 39.0907 11.4012 39.4931C12.3753 39.7775 13.3636 40.0106 14.3622 40.1913C15.4335 40.3457 16.5127 40.4385 17.5947 40.4693C17.9761 40.4693 18.3705 40.4693 18.7519 40.4693C19.588 40.5233 20.4272 40.506 21.2604 40.4176C22.757 40.3 24.2371 40.0248 25.676 39.5965C27.8078 38.9786 29.7888 37.9264 31.4945 36.5062C32.2437 35.8932 32.8822 35.1563 33.3823 34.3275C34.0002 33.247 34.4494 32.0785 34.7141 30.8622C34.9101 29.9996 35.0483 29.1249 35.1279 28.2439C35.1967 27.2213 35.1923 26.195 35.1149 25.173ZM28.9731 7.50407C28.9241 7.62479 28.8657 7.7415 28.7986 7.85317C28.6499 8.09884 28.54 8.16996 28.2879 7.85317C28.1775 7.71271 28.1219 7.53694 28.1314 7.35857C28.1409 7.18019 28.2149 7.01134 28.3396 6.88341C28.3616 6.85686 28.3893 6.83555 28.4206 6.82101C28.4519 6.80647 28.4861 6.79907 28.5206 6.79937C28.5635 6.79445 28.6069 6.79445 28.6499 6.79937C29.1606 6.98685 29.1671 6.96747 28.9731 7.47821V7.50407ZM19.1269 26.3691L19.1851 26.2333C19.8117 25.1195 20.7574 24.2189 21.9004 23.6473C22.2924 23.4609 22.7078 23.3283 23.1352 23.2529C24.1955 23.0654 25.2687 22.9296 26.3225 22.684C26.7491 22.6 27.1701 22.4899 27.5832 22.3543C28.6206 21.9834 29.5448 21.3509 30.2662 20.5182C30.3696 20.4018 30.4666 20.2725 30.5765 20.1561C30.6165 20.1046 30.6721 20.0674 30.735 20.0499C30.7979 20.0325 30.8647 20.0357 30.9256 20.0592C30.9867 20.083 31.0382 20.1263 31.0721 20.1825C31.106 20.2386 31.1204 20.3043 31.1131 20.3695C31.112 20.5316 31.1012 20.6935 31.0807 20.8544C30.9049 22.4009 30.5424 23.9205 30.0011 25.3799C29.7441 26.0222 29.4483 26.6483 29.1154 27.2548C28.6818 28.0332 28.0893 28.7116 27.3763 29.246C26.8427 29.6331 26.2681 29.9605 25.6631 30.2222C25.1285 30.4525 24.5512 30.5671 23.9692 30.5584C23.6271 30.5609 23.2881 30.4927 22.9736 30.358C22.2814 30.0927 21.6288 29.7338 21.0341 29.2912C20.2265 28.6205 19.5774 27.7794 19.1334 26.8281C19.0856 26.7565 19.0596 26.6726 19.0585 26.5866C19.0573 26.5005 19.0811 26.416 19.1269 26.3432V26.3691ZM6.1968 17.0271C6.29909 17.0016 6.40646 17.005 6.50691 17.0369C6.60737 17.0689 6.69698 17.1282 6.76573 17.2081C6.84787 17.2315 6.92788 17.2618 7.00493 17.2986C7.56772 17.574 8.11003 17.8895 8.62766 18.2425C9.59542 18.938 10.5095 19.7052 11.3624 20.5376L12.0089 21.1259C13.0812 22.104 14.0067 23.232 14.7565 24.4748C14.9537 24.8054 15.1142 25.1566 15.2349 25.5221C15.2996 25.7032 15.2931 25.729 15.1315 25.8518C14.3401 26.4803 13.4709 27.004 12.5455 27.4099C12.3515 27.4875 12.1576 27.5651 11.9701 27.6556C11.4944 27.8938 10.9698 28.0178 10.4379 28.0176C10.2698 28.0176 10.1082 28.0176 9.94654 28.0176H9.9142C9.15937 28.0459 8.41399 27.8424 7.7783 27.4344C7.14261 27.0264 6.6471 26.4335 6.35843 25.7355C6.11321 25.1546 5.97101 24.5355 5.9382 23.9059C5.89935 23.005 5.9448 22.1024 6.07396 21.2099C6.14508 20.6863 6.18388 20.1497 6.20974 19.6196C6.23151 19.0079 6.15511 18.3968 5.98346 17.8093C5.95114 17.6865 5.91234 17.5572 5.89294 17.4344C5.88263 17.3867 5.88205 17.3375 5.89121 17.2897C5.90037 17.2418 5.91907 17.1963 5.94623 17.1559C5.9734 17.1154 6.00845 17.0809 6.04928 17.0543C6.09011 17.0277 6.1359 17.0097 6.18388 17.0012L6.1968 17.0271ZM33.4987 25.5674C33.4236 26.7594 33.2242 27.9403 32.9039 29.0908C32.6315 30.0865 32.2132 31.0364 31.6626 31.9096C30.8339 33.2812 29.734 34.4691 28.4301 35.4007C27.3329 36.1669 25.9858 36.4881 24.661 36.2993C24.1185 36.2135 23.598 36.0224 23.1287 35.7369L22.8443 35.5494C22.8055 35.5494 22.7538 35.5106 22.7214 35.5494C22.7135 35.5632 22.7093 35.5788 22.7093 35.5947C22.7093 35.6105 22.7135 35.6262 22.7214 35.6399C22.7796 35.8403 22.8378 36.0407 22.9089 36.2347C23.0641 36.6743 23.2257 37.1139 23.3873 37.5277C23.3873 37.5859 23.4326 37.6506 23.4455 37.7087C23.4585 37.7669 23.3292 37.9415 23.2322 37.8898C23.1004 37.8314 22.9748 37.7599 22.8572 37.6764C21.967 37.0916 21.1508 36.4013 20.4264 35.6205C20.2409 35.42 20.0422 35.2321 19.8316 35.0581C19.7217 34.9611 19.6247 34.9999 19.5988 35.155C19.573 35.3102 19.5471 35.4718 19.5277 35.6334C19.4029 36.3962 19.3746 37.1717 19.4437 37.9415C19.4437 38.0061 19.4437 38.0708 19.3984 38.116C19.3702 38.1331 19.3377 38.1422 19.3047 38.1422C19.2716 38.1422 19.2392 38.1331 19.2109 38.116C18.8836 37.9092 18.5876 37.6566 18.3317 37.3661C17.817 36.8079 17.3819 36.1814 17.0387 35.5042C16.9427 35.1824 16.7722 34.8877 16.5409 34.6443C16.2835 34.8387 16.0434 35.055 15.8233 35.2908C15.3061 35.7498 14.8018 36.2282 14.2781 36.6808C13.9839 36.9562 13.6559 37.193 13.3019 37.3855C13.1855 37.4437 13.1144 37.3855 13.1144 37.2627C13.1144 36.3446 13.1144 35.4266 13.1144 34.5085V34.1853C12.9722 34.0948 12.8881 34.1853 12.7976 34.2435C11.5799 34.8682 10.3205 35.4082 9.02849 35.8597C8.78282 35.9416 8.53714 36.0192 8.29147 36.0925C8.22137 36.1149 8.1475 36.123 8.0742 36.1164C8.00091 36.1097 7.92969 36.0884 7.86479 36.0537C7.72256 35.9761 7.69023 35.892 7.77427 35.7498C8.09106 35.2455 8.42078 34.7413 8.72464 34.237C8.77636 34.1594 8.8604 34.0883 8.841 33.9784C8.82161 33.8685 8.70525 33.9267 8.63414 33.9331C7.90987 34.0157 7.17679 33.8993 6.5138 33.5962C5.85081 33.2932 5.28299 32.8151 4.87148 32.2135C4.27828 31.3857 3.88444 30.4321 3.7207 29.427C3.60251 28.7871 3.53978 28.1382 3.53321 27.4875C3.49442 26.1945 3.44916 24.8498 3.35219 23.5309C3.25812 22.4715 3.10488 21.4182 2.89318 20.3759C2.84577 20.1691 2.80696 19.9536 2.77679 19.7294C2.76529 19.6907 2.76812 19.6492 2.78474 19.6124C2.80136 19.5756 2.83067 19.546 2.86731 19.529C2.93196 19.529 2.9966 19.4708 3.04186 19.529C3.11472 19.6339 3.17545 19.7467 3.22288 19.8652C3.61624 20.8374 3.91081 21.8468 4.10214 22.8779C4.24437 23.6667 4.36073 24.4683 4.48357 25.2635C4.6856 26.6383 5.123 27.968 5.77658 29.1943C6.08426 29.7615 6.47424 30.28 6.93383 30.733C7.07181 30.8692 7.23701 30.9747 7.41861 31.0427C7.6002 31.1106 7.79411 31.1395 7.98763 31.1273C8.42645 31.1022 8.86061 31.0241 9.28064 30.8946C10.0368 30.668 10.7621 30.3488 11.44 29.9442C11.9712 29.6407 12.4771 29.2947 12.9528 28.9098C13.0134 28.8552 13.0782 28.8054 13.1467 28.7611C13.1791 28.7389 13.2174 28.727 13.2566 28.727C13.2959 28.727 13.3342 28.7389 13.3665 28.7611C13.4039 28.7757 13.4345 28.8036 13.4524 28.8394C13.4703 28.8753 13.4743 28.9165 13.4635 28.9551C13.4304 29.0635 13.3894 29.1694 13.3407 29.2719C13.1189 29.8103 12.8229 30.3152 12.4614 30.7717C12.3938 30.8608 12.3312 30.9536 12.2739 31.0497C12.2739 31.0885 12.2093 31.1402 12.2222 31.1661C12.2352 31.192 12.2998 31.1984 12.3451 31.1661L12.4226 31.1144C12.7406 31.0032 13.0427 30.8511 13.3213 30.6618C13.7286 30.4032 14.1294 30.1317 14.5302 29.8666L16.0172 28.8904C16.1788 28.787 16.2758 28.8193 16.3663 28.9939C16.4568 29.1684 16.4633 29.2007 16.5086 29.3042C16.9563 30.381 17.5153 31.408 18.1765 32.3686C18.0635 31.8886 17.9921 31.3998 17.9632 30.9075C17.9416 30.3441 17.985 29.7801 18.0925 29.2266C18.0925 29.1684 18.0925 29.0908 18.1701 29.065C18.2477 29.0391 18.3188 29.1102 18.364 29.1684C18.4093 29.2266 18.5644 29.4205 18.6549 29.5498C19.2117 30.3615 19.8484 31.1152 20.5557 31.7997C20.7724 32.052 21.008 32.2876 21.2604 32.5044C21.3086 32.3662 21.3086 32.2158 21.2604 32.0777C21.1281 31.629 21.0308 31.1708 20.9694 30.7071C20.9694 30.5455 20.8531 30.3774 20.9694 30.2157C21.1375 30.2481 21.228 30.3903 21.3509 30.4873C21.8095 30.8706 22.3453 31.1506 22.9219 31.3083C23.2384 31.3761 23.5615 31.4086 23.8852 31.4053C24.4972 31.4084 25.108 31.35 25.7083 31.2308C26.5482 31.0632 27.3475 30.7339 28.0616 30.261C29.5443 29.3047 30.7626 27.9907 31.6044 26.4402C32.0985 25.4974 32.5304 24.5235 32.8974 23.5244C32.9317 23.4185 32.9727 23.3148 33.0203 23.2141C33.0849 23.0913 33.1043 22.8844 33.2659 22.9103C33.4276 22.9361 33.4405 23.1171 33.4857 23.2529C33.5398 23.4223 33.5681 23.5988 33.5698 23.7766C33.5772 24.366 33.5491 24.9554 33.4857 25.5415L33.4987 25.5674Z" fill="#EF0004"/>
</svg>
