<svg width="24" height="24" viewBox="0 0 24 24" fill="none" xmlns="http://www.w3.org/2000/svg">
<g clip-path="url(#clip0_169_57)">
<path d="M18.9995 0H4.99951C2.23851 0 -0.000488281 2.239 -0.000488281 5V19C-0.000488281 21.761 2.23851 24 4.99951 24H18.9995C21.7615 24 23.9995 21.761 23.9995 19V5C23.9995 2.239 21.7615 0 18.9995 0ZM7.99951 19H4.99951V8H7.99951V19ZM6.49951 6.732C5.53351 6.732 4.74951 5.942 4.74951 4.968C4.74951 3.994 5.53351 3.204 6.49951 3.204C7.46551 3.204 8.24951 3.994 8.24951 4.968C8.24951 5.942 7.46651 6.732 6.49951 6.732ZM19.9995 19H16.9995V13.396C16.9995 10.028 12.9995 10.283 12.9995 13.396V19H9.99951V8H12.9995V9.765C14.3955 7.179 19.9995 6.988 19.9995 12.241V19Z" fill="white"/>
</g>
<defs>
<clipPath id="clip0_169_57">
<rect width="24" height="24" fill="white" transform="translate(-0.000488281)"/>
</clipPath>
</defs>
</svg>
