<svg width="43" height="43" viewBox="0 0 43 43" fill="none" xmlns="http://www.w3.org/2000/svg">
<rect x="0.149292" width="42.1162" height="42.1162" rx="21.0581" fill="#404BBB"/>
<g clip-path="url(#clip0_101_33)">
<path d="M21.7207 33.8477C28.3988 33.8477 33.8125 28.4341 33.8125 21.756C33.8125 15.0779 28.3988 9.66418 21.7207 9.66418C15.0426 9.66418 9.62891 15.0779 9.62891 21.756C9.62891 28.4341 15.0426 33.8477 21.7207 33.8477Z" stroke="white" stroke-width="1.74322"/>
<path fill-rule="evenodd" clip-rule="evenodd" d="M21.5916 9.93628C15.064 9.93628 9.77234 15.2279 9.77234 21.7555C9.77234 28.2832 15.064 33.5748 21.5916 33.5748H21.7208V9.93628H21.5916ZM11.4539 20.9379C12.526 19.7494 13.891 18.7767 15.4516 18.4538C17.0429 18.1245 18.7476 18.4905 20.4122 19.8179L19.5428 20.9083C18.1706 19.8141 16.8818 19.5819 15.7342 19.8194C14.5558 20.0632 13.4364 20.8223 12.4893 21.872L11.4539 20.9379Z" fill="white"/>
<path fill-rule="evenodd" clip-rule="evenodd" d="M28.1249 18.4532C29.6855 18.7762 31.0504 19.7489 32.1226 20.9374L31.0872 21.8715C30.1401 20.8218 29.0206 20.0628 27.8423 19.8189C26.6947 19.5814 25.4059 19.8136 24.0337 20.9078L23.1642 19.8174C24.829 18.4899 26.5335 18.124 28.1249 18.4532Z" fill="white"/>
<path d="M14.5319 22.126L21.8011 34.7168H7.26251L14.5319 22.126Z" fill="white"/>
</g>
<defs>
<clipPath id="clip0_101_33">
<rect width="27.7872" height="27.0747" fill="white" transform="translate(7.31378 7.52075)"/>
</clipPath>
</defs>
</svg>
