<svg width="25" height="24" viewBox="0 0 25 24" fill="none" xmlns="http://www.w3.org/2000/svg">
<path fill-rule="evenodd" clip-rule="evenodd" d="M12.5123 0C5.746 0 0.276123 5.49999 0.276123 12.3042C0.276123 17.7433 3.78086 22.3472 8.64287 23.9768C9.25073 24.0992 9.47337 23.712 9.47337 23.3862C9.47337 23.101 9.45337 22.1233 9.45337 21.1045C6.04959 21.838 5.34075 19.6377 5.34075 19.6377C4.79373 18.2117 3.98323 17.8453 3.98323 17.8453C2.86917 17.0915 4.06439 17.0915 4.06439 17.0915C5.30017 17.173 5.94861 18.3545 5.94861 18.3545C7.04238 20.2285 8.80493 19.699 9.51394 19.373C9.61515 18.5785 9.93951 18.0285 10.2839 17.723C7.5691 17.4378 4.71284 16.3785 4.71284 11.6522C4.71284 10.3078 5.19873 9.20773 5.96867 8.35226C5.84717 8.04677 5.42165 6.78352 6.09039 5.09274C6.09039 5.09274 7.12353 4.76674 9.45308 6.35573C10.4505 6.08642 11.4791 5.94937 12.5123 5.94823C13.5454 5.94823 14.5986 6.09098 15.5712 6.35573C17.901 4.76674 18.9342 5.09274 18.9342 5.09274C19.6029 6.78352 19.1771 8.04677 19.0557 8.35226C19.8458 9.20773 20.3117 10.3078 20.3117 11.6522C20.3117 16.3785 17.4554 17.4172 14.7203 17.723C15.1662 18.11 15.5509 18.8432 15.5509 20.0045C15.5509 21.6545 15.5308 22.9787 15.5308 23.386C15.5308 23.712 15.7538 24.0992 16.3614 23.977C21.2234 22.347 24.7281 17.7433 24.7281 12.3042C24.7482 5.49999 19.2582 0 12.5123 0Z" fill="white"/>
</svg>
