<svg width="29" height="24" viewBox="0 0 29 24" fill="none" xmlns="http://www.w3.org/2000/svg">
<path fill-rule="evenodd" clip-rule="evenodd" d="M1.99085 10.3318C9.76473 6.94499 14.9486 4.71202 17.5422 3.63319C24.9479 0.552936 26.4867 0.01786 27.4898 0.000187216C27.7103 -0.00368595 28.2036 0.0509787 28.523 0.310226C28.793 0.529141 28.8672 0.824847 28.9027 1.0324C28.9381 1.23995 28.9824 1.71273 28.9472 2.08217C28.546 6.29884 26.8093 16.5314 25.9259 21.2541C25.5523 23.2526 24.8161 23.9227 24.1036 23.9881C22.5551 24.1307 21.379 22.9648 19.8791 21.9815C17.5322 20.4431 16.2063 19.4852 13.9281 17.984C11.2952 16.2489 13.0019 15.2955 14.5024 13.7369C14.895 13.3292 21.7183 7.12311 21.8502 6.55999C21.8667 6.48971 21.882 6.22717 21.7262 6.08857C21.5703 5.94998 21.34 5.99738 21.1739 6.03507C20.9385 6.08848 17.1892 8.56661 9.92585 13.4698C8.86161 14.2006 7.89763 14.5566 7.03396 14.5378C6.08181 14.5174 4.25029 13.9995 2.88872 13.557C1.21872 13.014 -0.108574 12.7271 0.00701759 11.8052C0.0672024 11.3249 0.728494 10.8339 1.99085 10.3318Z" fill="white"/>
</svg>
