<svg width="32" height="32" viewBox="0 0 32 32" fill="none" xmlns="http://www.w3.org/2000/svg">
<rect width="32" height="32" rx="16" fill="#FF24BD"/>
<path d="M16.2057 11.8469C16.2057 12.4487 16.6936 12.9366 17.2954 12.9366H22.1014C22.7032 12.9366 23.1911 12.4487 23.1911 11.8469C23.1911 11.245 22.7032 10.7572 22.1014 10.7572H17.2954C16.6936 10.7572 16.2057 11.245 16.2057 11.8469ZM16.2057 19.838C16.2057 20.4399 16.6936 20.9277 17.2954 20.9277H22.1014C22.7032 20.9277 23.1911 20.4399 23.1911 19.838C23.1911 19.2362 22.7032 18.7483 22.1014 18.7483H17.2954C16.6936 18.7483 16.2057 19.2362 16.2057 19.838ZM11.8469 14.1937C12.4971 14.1937 13.0507 13.9651 13.5079 13.5079C13.9651 13.0507 14.1937 12.4971 14.1937 11.8469C14.1937 11.1969 13.9651 10.6432 13.5079 10.1858C13.0507 9.7286 12.4971 9.5 11.8469 9.5C11.1967 9.5 10.643 9.7286 10.1858 10.1858C9.7286 10.6432 9.5 11.1969 9.5 11.8469C9.5 12.4971 9.7286 13.0507 10.1858 13.5079C10.643 13.9651 11.1967 14.1937 11.8469 14.1937ZM11.8469 22.1849C12.4971 22.1849 13.0507 21.9563 13.5079 21.4991C13.9651 21.0417 14.1937 20.488 14.1937 19.838C14.1937 19.1878 13.9651 18.6342 13.5079 18.177C13.0507 17.7198 12.4971 17.4912 11.8469 17.4912C11.1967 17.4912 10.643 17.7198 10.1858 18.177C9.7286 18.6342 9.5 19.1878 9.5 19.838C9.5 20.488 9.7286 21.0417 10.1858 21.4991C10.643 21.9563 11.1967 22.1849 11.8469 22.1849Z" fill="white"/>
<path d="M29 16C29 23.1797 23.1797 29 16 29C8.8203 29 3 23.1797 3 16C3 8.8203 8.8203 3 16 3C23.1797 3 29 8.8203 29 16ZM5.51544 16C5.51544 21.7905 10.2095 26.4846 16 26.4846C21.7905 26.4846 26.4846 21.7905 26.4846 16C26.4846 10.2095 21.7905 5.51544 16 5.51544C10.2095 5.51544 5.51544 10.2095 5.51544 16Z" fill="white"/>
</svg>
