<svg width="96" height="96" viewBox="0 0 96 96" fill="none" xmlns="http://www.w3.org/2000/svg">
<path d="M-3.96105e-06 36.0745C-4.105e-06 39.3677 2.98477 42.0373 6.66667 42.0373L35.3333 42.0373C35.3333 40.5104 35.6696 38.7002 36.3229 37.2895C36.9762 35.8789 37.9338 34.5971 39.1409 33.5174C40.3481 32.4377 41.7812 31.5812 43.3584 30.9969C44.9357 30.4126 46.6261 30.1118 48.3333 30.1118C50.0405 30.1118 51.731 30.4126 53.3082 30.9969C54.8854 31.5812 56.3186 32.4377 57.5257 33.5174C58.7329 34.5971 59.6905 35.8789 60.3438 37.2896C60.9971 38.7002 61.3333 40.5104 61.3333 42.0373L89.3333 42.0373C93.0152 42.0373 96 39.3677 96 36.0745C96 36.0745 86.9992 -3.93435e-07 48.3333 -2.08358e-06C7.33333 -3.87574e-06 -3.96105e-06 36.0745 -3.96105e-06 36.0745Z" fill="url(#paint0_linear_3016_3056)"/>
<path d="M-5.00361e-06 59.9255C-4.85966e-06 56.6323 2.98477 53.9627 6.66667 53.9627L35.3333 53.9627C35.3333 52.4358 35.6696 50.6257 36.3229 49.215C36.9762 47.8043 37.9338 46.5225 39.1409 45.4428C40.3481 44.3631 41.7812 43.5067 43.3584 42.9224C44.9357 42.338 46.6261 42.0373 48.3333 42.0373C50.0405 42.0373 51.731 42.338 53.3082 42.9224C54.8854 43.5067 56.3186 44.3631 57.5257 45.4428C58.7329 46.5225 59.6905 47.8043 60.3438 49.215C60.9971 50.6257 61.3333 52.4358 61.3333 53.9627L89.3333 53.9627C93.0152 53.9627 96 56.6323 96 59.9255C96 59.9255 86.9992 96 48.3333 96C7.33333 96 -5.00361e-06 59.9255 -5.00361e-06 59.9255Z" fill="url(#paint1_linear_3016_3056)"/>
<defs>
<linearGradient id="paint0_linear_3016_3056" x1="96" y1="48" x2="14.7967" y2="82.6633" gradientUnits="userSpaceOnUse">
<stop stop-color="#FEBDFF"/>
<stop offset="1" stop-color="#FC72FF"/>
</linearGradient>
<linearGradient id="paint1_linear_3016_3056" x1="96" y1="48" x2="14.7967" y2="82.6633" gradientUnits="userSpaceOnUse">
<stop stop-color="#FEBDFF"/>
<stop offset="1" stop-color="#FC72FF"/>
</linearGradient>
</defs>
</svg>
