<svg width="24" height="18" viewBox="0 0 24 18" fill="none" xmlns="http://www.w3.org/2000/svg">
<path fill-rule="evenodd" clip-rule="evenodd" d="M0 0V18H3.81403V12.2553H6.42596C7.70385 12.2553 8.99263 11.8963 9.89033 10.9868C12.7344 8.10546 12.8115 4.51196 9.93872 1.40451C9.0185 0.409096 7.65549 0 6.29989 0H0ZM3.43262 8.80851V3.82979H7.24665C9.15366 4.97872 9.15366 7.65957 7.24665 8.80851H3.43262Z" fill="#FF24BD"/>
<path d="M11.0607 14.1702V18H14.4933V12.2553H17.5309C18.7813 12.2553 20.0454 11.9134 20.9245 11.0242C23.9454 7.96871 23.9185 3.84187 20.8439 1.043C20.0025 0.277059 18.8489 0 17.7111 0H12.5863C13.9405 1.13332 14.2829 1.91423 14.4933 3.44681H17.9259C20.5957 4.21277 20.9771 8.04255 17.9259 8.80851H14.4933C14.1517 10.9747 13.5458 12.1591 11.0607 14.1702Z" fill="#FF24BD"/>
</svg>
