<svg width="135" height="27" viewBox="0 0 135 27" fill="none" xmlns="http://www.w3.org/2000/svg">
<path fill-rule="evenodd" clip-rule="evenodd" d="M4.69009 1.5576C9.10313 -0.926826 13.2049 -0.0784091 15.8254 1.59743C18.4459 -0.0784091 22.5476 -0.926826 26.9608 1.5576C30.3816 3.48377 32.1501 7.41686 31.5275 11.6755C30.9019 15.9577 27.6829 20.6517 21.9514 24.5457C20.1535 25.7709 18.4707 26.9179 15.8254 26.9179C13.1801 26.9179 11.4974 25.7709 9.69952 24.5457C3.96783 20.6517 0.74891 15.9577 0.123179 11.6755C-0.499127 7.41686 1.26907 3.48377 4.69009 1.5576ZM39.1012 19.739C37.0445 19.739 35.3773 21.3458 35.3773 23.3279C35.3773 25.3101 37.0445 26.9169 39.1012 26.9169H50.273C52.3297 26.9169 53.9969 25.3101 53.9969 23.3279C53.9969 21.3458 52.3297 19.739 50.273 19.739H39.1012Z" fill="white"/>
<path d="M70.3451 19.8078C66.1593 19.8078 63.5549 17.3428 63.5549 14.0407V3.18101H66.3454V13.971C66.3454 16.0639 68.0429 17.2498 70.3218 17.2498C72.624 17.2498 74.3216 16.0639 74.3216 13.971V3.18101H77.1121V14.0407C77.1121 17.2963 74.5774 19.8078 70.3451 19.8078ZM82.8046 19.459H80.0606V7.13423H82.2698L82.5023 8.94806C83.2697 7.66907 84.8278 6.76216 86.6648 6.76216C89.2926 6.76216 91.0134 8.52948 91.0134 11.2967V19.459H88.2694V11.4363C88.2694 10.0643 87.3625 9.15735 85.8277 9.15735C84.0371 9.15735 82.8279 10.3898 82.8046 11.9944V19.459ZM95.0127 5.48318C94.0128 5.48318 93.2454 4.69253 93.2454 3.6926C93.2454 2.69267 94.0128 1.92528 95.0127 1.92528C96.0359 1.92528 96.7801 2.69267 96.7801 3.6926C96.7801 4.69253 96.0359 5.48318 95.0127 5.48318ZM96.3847 19.459H93.6407V7.13423H96.3847V19.459ZM104.809 24.4819C101.368 24.4819 98.9958 22.8076 98.9958 20.1566H101.74C101.74 21.3193 102.972 22.2495 104.809 22.2495C106.995 22.2495 108.135 20.9472 108.135 19.0869V17.3428C107.344 18.5288 105.972 19.2729 104.205 19.2729C100.903 19.2729 98.5307 16.715 98.5307 13.0408C98.5307 9.34338 100.903 6.76216 104.181 6.76216C106.112 6.76216 107.67 7.66907 108.437 9.04107L108.67 7.13423H110.855V19.0869C110.855 22.3425 108.553 24.4819 104.809 24.4819ZM104.74 16.9708C106.739 16.9708 108.135 15.343 108.135 13.0175C108.135 10.6921 106.739 9.08758 104.74 9.08758C102.74 9.08758 101.368 10.6921 101.368 13.0408C101.368 15.3662 102.74 16.9708 104.74 16.9708ZM114.997 5.48318C113.997 5.48318 113.23 4.69253 113.23 3.6926C113.23 2.69267 113.997 1.92528 114.997 1.92528C116.02 1.92528 116.764 2.69267 116.764 3.6926C116.764 4.69253 116.02 5.48318 114.997 5.48318ZM116.369 19.459H113.625V7.13423H116.369V19.459ZM123.282 19.459H120.538V9.45965H118.375V7.13423H120.538V5.59945C120.538 3.27403 121.91 2.0183 124.468 2.0183H127.142V4.34372H124.654C123.77 4.34372 123.282 4.85531 123.282 5.78548V7.13423H128.375V2.92521H131.142V7.13423H134.304V9.45965H131.142V15.5058C131.142 16.5522 131.677 17.1335 132.677 17.1335H134.072V19.459H132.491C129.816 19.459 128.375 18.1335 128.375 15.6918V9.45965H123.282V19.459Z" fill="white"/>
</svg>
