<svg width="34" height="43" viewBox="0 0 34 43" fill="none" xmlns="http://www.w3.org/2000/svg">
<path d="M20.0449 3.84932C20.3334 3.21317 20.4215 2.50202 20.2973 1.81305C20.173 1.12408 19.8425 0.490895 19.3508 0C17.1098 1.09981 17.5862 3.69392 17.5862 3.69392C16.1216 2.98263 14.2628 3.84932 14.2628 3.84932C14.2239 3.10486 13.9204 2.40006 13.4087 1.86581C12.897 1.33155 12.2119 1.00415 11.4807 0.944399C11.3426 1.56005 11.3478 2.19994 11.4958 2.81319C11.6439 3.42643 11.9307 3.99612 12.3335 4.47693C-5.85964 17.9137 1.45174 43 1.45174 43C-1.54222 31.7927 7.58674 28.8579 7.58674 28.8579C-0.918692 18.099 9.69838 17.4415 9.69838 17.4415C7.22204 10.7351 12.2041 7.59105 12.2041 7.59105C12.9276 14.2437 16.5039 14.6501 16.5039 14.6501L17.2215 17.5431L17.7391 14.6501C21.2683 12.4864 20.0919 6.96345 20.0919 6.96345C26.7916 7.69864 23.1859 16.1803 23.1859 16.1803C35.1441 17.2323 27.3033 28.5411 27.3033 28.5411C34.5206 29.8023 32.356 41.954 32.356 41.954C39.7027 8.71476 20.0449 3.84932 20.0449 3.84932ZM13.0394 5.28983C13.0425 5.28972 13.0457 5.28961 13.0488 5.28952C13.5851 5.27252 14.1175 5.38869 14.5997 5.62801C15.0848 5.86873 15.5044 6.22672 15.8216 6.67056C15.548 6.76841 15.2579 6.80939 14.9684 6.79108C14.6789 6.77276 14.396 6.69552 14.1365 6.56394C13.877 6.43236 13.6462 6.24913 13.4577 6.02512C13.2759 5.809 13.137 5.55916 13.0488 5.28952C13.0456 5.27968 13.0425 5.26982 13.0394 5.25994V5.28983ZM16.6157 6.6347C16.6157 6.6347 16.6195 6.6247 16.6273 6.60625C16.7272 6.371 17.4778 4.76112 19.2449 4.95511C19.2449 4.92528 18.4718 6.82989 16.6273 6.60625C16.6234 6.60578 16.6196 6.6053 16.6157 6.60481V6.6347Z" fill="#404040"/>
<path d="M14.5997 5.62801C14.1175 5.38869 13.5851 5.27252 13.0488 5.28952C13.137 5.55916 13.2759 5.809 13.4577 6.02512C13.6462 6.24913 13.877 6.43236 14.1365 6.56394C14.396 6.69552 14.6789 6.77276 14.9684 6.79108C15.2579 6.80939 15.548 6.76841 15.8216 6.67056C15.5044 6.22672 15.0848 5.86873 14.5997 5.62801Z" fill="#E0FF2F"/>
<path d="M16.6273 6.60625C16.7272 6.371 17.4778 4.76112 19.2449 4.95511C19.2449 4.92528 18.4718 6.82989 16.6273 6.60625Z" fill="#E0FF2F"/>
</svg>
