<svg width="164" height="144" viewBox="0 0 164 144" fill="none" xmlns="http://www.w3.org/2000/svg">
<path d="M164 10V134C164 139.523 159.523 144 154 144H30C24.4771 144 20 139.523 20 134V91C17.4392 91 14.4035 90.4956 12.0377 89.5156C9.67183 88.5357 7.52216 87.0993 5.71142 85.2886C3.90068 83.4778 2.46432 81.3282 1.48435 78.9623C0.504383 76.5965 2.2387e-07 74.0608 0 71.5C-2.2387e-07 68.9392 0.504382 66.4035 1.48435 64.0377C2.46432 61.6718 3.90067 59.5222 5.71142 57.7114C7.52216 55.9007 9.67182 54.4643 12.0377 53.4843C14.4035 52.5044 17.4392 52 20 52V10C20 4.47715 24.4772 0 30 0L72 2.31256e-06C72 2.56078 72.5044 5.09648 73.4844 7.46233C74.4643 9.82818 75.9007 11.9778 77.7114 13.7886C79.5222 15.5993 81.6718 17.0357 84.0377 18.0157C86.4035 18.9956 88.9392 19.5 91.5 19.5C94.0608 19.5 96.5965 18.9956 98.9623 18.0157C101.328 17.0357 103.478 15.5993 105.289 13.7886C107.099 11.9778 108.536 9.82818 109.516 7.46233C110.496 5.09648 111 2.56078 111 3.8147e-06L154 0C159.523 0 164 4.47715 164 10Z" fill="#2AABEE"/>
<path fill-rule="evenodd" clip-rule="evenodd" d="M50.0871 68.1906C69.9513 59.441 83.1972 53.6727 89.8248 50.8857C108.748 42.9284 112.68 41.5461 115.243 41.5005C115.807 41.4904 117.067 41.6317 117.883 42.3014C118.573 42.8669 118.762 43.6308 118.853 44.167C118.944 44.7032 119.057 45.9246 118.967 46.8789C117.942 57.7719 113.505 84.2062 111.247 96.4066C110.292 101.569 108.411 103.3 106.59 103.469C102.633 103.837 99.6286 100.825 95.7961 98.2856C89.7989 94.3111 86.4108 91.837 80.5895 87.9587C73.862 83.4766 78.2232 81.0132 82.0572 76.9872C83.0605 75.9336 100.495 59.9011 100.833 58.4467C100.875 58.2648 100.914 57.5868 100.516 57.2288C100.117 56.8707 99.5292 56.9932 99.1048 57.0905C98.5033 57.2286 88.9227 63.6306 70.363 76.2966C67.6436 78.1845 65.1804 79.1044 62.9735 79.0562C60.5405 79.003 55.8605 77.6654 52.3814 76.5221C48.1141 75.1197 44.7226 74.3783 45.0179 71.9966C45.1718 70.7561 46.8615 69.4874 50.0871 68.1906Z" fill="white"/>
</svg>
