<svg width="144" height="164" viewBox="0 0 144 164" fill="none" xmlns="http://www.w3.org/2000/svg">
<path d="M134 164L9.99999 164C4.47715 164 -6.97297e-06 159.523 -6.73155e-06 154L-1.31134e-06 30C-1.06993e-06 24.4771 4.47715 20 10 20L53 20C53 17.4392 53.5044 14.4035 54.4844 12.0377C55.4643 9.67182 56.9007 7.52216 58.7114 5.71142C60.5222 3.90067 62.6718 2.46431 65.0377 1.48435C67.4035 0.50438 69.9392 -3.01343e-06 72.5 -3.12536e-06C75.0608 -3.2373e-06 77.5965 0.504379 79.9623 1.48435C82.3282 2.46431 84.4778 3.90067 86.2886 5.71141C88.0993 7.52216 89.5357 9.67182 90.5157 12.0377C91.4956 14.4035 92 17.4392 92 20L134 20C139.523 20 144 24.4772 144 30L144 72C141.439 72 138.904 72.5044 136.538 73.4844C134.172 74.4643 132.022 75.9007 130.211 77.7114C128.401 79.5222 126.964 81.6718 125.984 84.0377C125.004 86.4035 124.5 88.9392 124.5 91.5C124.5 94.0608 125.004 96.5965 125.984 98.9623C126.964 101.328 128.401 103.478 130.211 105.289C132.022 107.099 134.172 108.536 136.538 109.516C138.904 110.496 141.439 111 144 111L144 154C144 159.523 139.523 164 134 164Z" fill="#FD1669"/>
<path d="M97.2623 61.3688L77.2377 50.0138C73.6918 47.9954 69.3082 47.9954 65.7623 50.0138L45.7377 61.3688C42.1918 63.3872 40 67.1082 40 71.1338V93.8549C40 97.8805 42.1918 101.602 45.7377 103.62L65.7623 114.986C69.3082 117.005 73.6918 117.005 77.2377 114.986L97.2623 103.62C100.808 101.602 103 97.8805 103 93.8549V71.1338C103 67.1082 100.82 63.3872 97.2623 61.3688ZM87.3934 84.7552L81.4377 94.8923C80.623 96.2906 79.1082 97.1475 77.4672 97.1475H65.5443C63.9033 97.1475 62.3885 96.2906 61.5738 94.8923L55.6066 84.7552C54.7918 83.357 54.7918 81.643 55.6066 80.2448L61.5623 70.1077C62.377 68.7094 63.8918 67.8525 65.5328 67.8525H77.4443C79.0852 67.8525 80.6 68.7094 81.4148 70.1077L87.3705 80.2448C88.2082 81.643 88.2082 83.357 87.3934 84.7552Z" fill="white"/>
</svg>
