<svg width="289" height="164" viewBox="0 0 289 164" fill="none" xmlns="http://www.w3.org/2000/svg">
<path d="M134.5 164H10.5C4.97715 164 0.5 159.523 0.5 154L0.500005 30C0.500006 24.4771 4.97716 20 10.5 20L53.5 20C53.5 17.4392 54.0044 14.4035 54.9844 12.0377C55.9643 9.67183 57.4007 7.52216 59.2114 5.71142C61.0222 3.90068 63.1718 2.46432 65.5377 1.48435C67.9035 0.504383 70.4392 1.11935e-07 73 0C75.5608 -1.11935e-07 78.0965 0.504382 80.4623 1.48435C82.8282 2.46432 84.9778 3.90068 86.7886 5.71142C88.5993 7.52216 90.0357 9.67182 91.0157 12.0377C91.9956 14.4035 92.5 17.4392 92.5 20L144.5 20C144.558 26 144.5 24.4772 144.5 30V72C141.939 72 139.404 72.5044 137.038 73.4844C134.672 74.4643 132.522 75.9007 130.711 77.7114C128.901 79.5222 127.464 81.6718 126.484 84.0377C125.504 86.4035 125 88.9392 125 91.5C125 94.0608 125.504 96.5965 126.484 98.9623C127.464 101.328 128.901 103.478 130.711 105.289C132.522 107.099 134.672 108.536 137.038 109.516C139.404 110.496 141.939 111 144.5 111L144 164C136.538 164 140.023 164 134.5 164Z" fill="#FD1669"/>
<path d="M97.2623 61.3688L77.2377 50.0138C73.6918 47.9954 69.3082 47.9954 65.7623 50.0138L45.7377 61.3688C42.1918 63.3872 40 67.1082 40 71.1338V93.8549C40 97.8805 42.1918 101.602 45.7377 103.62L65.7623 114.986C69.3082 117.005 73.6918 117.005 77.2377 114.986L97.2623 103.62C100.808 101.602 103 97.8805 103 93.8549V71.1338C103 67.1082 100.82 63.3872 97.2623 61.3688ZM87.3934 84.7552L81.4377 94.8923C80.623 96.2906 79.1082 97.1475 77.4672 97.1475H65.5443C63.9033 97.1475 62.3885 96.2906 61.5738 94.8923L55.6066 84.7552C54.7918 83.357 54.7918 81.643 55.6066 80.2448L61.5623 70.1077C62.3771 68.7094 63.8918 67.8525 65.5328 67.8525H77.4443C79.0853 67.8525 80.6 68.7094 81.4148 70.1077L87.3705 80.2448C88.2082 81.643 88.2082 83.357 87.3934 84.7552Z" fill="white"/>
<path d="M288.5 30V154C288.5 159.523 284.023 164 278.5 164H144C144 154 144 159.523 144 154L144.5 111C141.939 111 139.404 110.496 137.038 109.516C134.672 108.536 132.522 107.099 130.711 105.289C128.901 103.478 127.464 101.328 126.484 98.9623C125.504 96.5965 125 94.0608 125 91.5C125 88.9392 125.504 86.4035 126.484 84.0377C127.464 81.6718 128.901 79.5222 130.711 77.7114C132.522 75.9007 134.672 74.4643 137.038 73.4844C139.404 72.5044 141.939 72 144.5 72V20C149 20 148.977 20 154.5 20L196.5 20C196.5 22.5608 197.004 25.0965 197.984 27.4623C198.964 29.8282 200.401 31.9778 202.211 33.7886C204.022 35.5993 206.172 37.0357 208.538 38.0157C210.904 38.9956 213.439 39.5 216 39.5C218.561 39.5 221.096 38.9956 223.462 38.0157C225.828 37.0357 227.978 35.5993 229.789 33.7886C231.599 31.9778 233.036 29.8282 234.016 27.4623C234.996 25.0965 235.5 22.5608 235.5 20L278.5 20C284.023 20 288.5 24.4772 288.5 30Z" fill="#2AABEE"/>
<path fill-rule="evenodd" clip-rule="evenodd" d="M174.587 88.1906C194.451 79.441 207.697 73.6727 214.325 70.8857C233.248 62.9284 237.18 61.5461 239.743 61.5005C240.307 61.4904 241.567 61.6317 242.383 62.3014C243.073 62.8669 243.262 63.6309 243.353 64.167C243.444 64.7032 243.557 65.9246 243.467 66.8789C242.442 77.7719 238.005 104.206 235.747 116.407C234.792 121.569 232.911 123.3 231.09 123.469C227.133 123.837 224.129 120.825 220.296 118.286C214.299 114.311 210.911 111.837 205.09 107.959C198.362 103.477 202.723 101.013 206.557 96.9872C207.561 95.9336 224.995 79.9011 225.333 78.4467C225.375 78.2648 225.414 77.5868 225.016 77.2288C224.617 76.8708 224.029 76.9932 223.605 77.0906C223.003 77.2286 213.423 83.6306 194.863 96.2966C192.144 98.1845 189.68 99.1044 187.473 99.0562C185.041 99.003 180.361 97.6654 176.881 96.5221C172.614 95.1197 169.223 94.3783 169.518 91.9966C169.672 90.7561 171.361 89.4874 174.587 88.1906Z" fill="white"/>
</svg>
