<svg width="32" height="29" viewBox="0 0 32 29" fill="none" xmlns="http://www.w3.org/2000/svg">
<path d="M14.2597 11.5882C14.2597 11.5882 14.2597 5.30578 18.2283 6.76808C22.1969 8.23037 19.7941 12.536 19.7941 12.536C19.7941 12.536 24.3027 21.9596 13.9628 24.0448C13.9088 24.0448 7.64541 19.0351 14.2597 11.5882Z" fill="#404040"/>
<path d="M19.9835 12.9101C22.2954 10.9954 24.7681 9.29073 27.3732 7.81577C28.745 7.56395 30.1601 7.82637 31.3561 8.55443L31.9072 7.53558C30.3966 6.636 28.612 6.33659 26.8972 6.69502C24.1832 8.24638 21.6023 10.0272 19.1818 12.0185L19.9835 12.9101Z" fill="#404040"/>
<path d="M30.7407 17.6835L31.9072 17.3359C31.9072 17.0953 30.2105 11.4277 26.8436 11.3208C24.1806 11.532 21.5811 12.2485 19.1818 13.4328L19.7121 14.5556C21.9261 13.4458 24.3273 12.7656 26.7905 12.5506C28.8849 12.6308 30.3431 16.2933 30.7407 17.6835Z" fill="#404040"/>
<path d="M29.2004 25.6344L30.3164 25.2596C29.9867 24.3104 27.0952 15.9668 23.2653 16.0917C20.0187 16.0917 19.2324 16.8911 19.1817 17.4657L20.3231 17.6155C20.3381 17.6729 20.3381 17.7331 20.3231 17.7904C20.3231 17.7904 20.7796 17.3158 23.3414 17.2408C25.9031 17.1659 28.059 22.3619 29.2004 25.6344Z" fill="#404040"/>
<path d="M25.5047 28.816C25.5047 28.5186 26.1918 21.6783 21.8148 20.4076L17.8959 19.272L17.5906 20.4616L21.5095 21.6242C24.9194 22.5975 24.3341 28.6268 24.3341 28.6809L25.5047 28.816Z" fill="#404040"/>
<path d="M13.1977 12.9095H14.4092C13.2504 2.50269 7.11418 0.264964 6.85083 0.184082L6.45581 1.37035C6.69283 1.31643 12.1443 3.33847 13.1977 12.9095Z" fill="#404040"/>
<path d="M13.276 14.5007L14.4092 13.9632C13.0167 11.5288 11.3302 9.23489 9.37919 7.12149C7.0853 5.09342 1.22625 9.02738 0.093119 9.83372L0.894538 10.7134C3.38189 8.95408 7.36165 6.95045 8.49477 7.92783C10.3439 9.9651 11.9464 12.1681 13.276 14.5007V14.5007Z" fill="#404040"/>
<path d="M0.971286 16.0928C3.04685 14.3946 6.98505 11.9501 8.66146 12.6963C10.4421 13.5903 12.0819 14.7254 13.5311 16.0671L14.4092 15.1665C12.8362 13.7095 11.0414 12.4946 9.08723 11.5641C6.16016 10.2518 0.705143 14.6519 0.0931187 15.1408L0.971286 16.0928Z" fill="#404040"/>
<path d="M0.936654 20.8624C1.16139 20.6126 6.55493 15.1173 12.1732 18.7704L12.8193 17.5215C6.52687 13.3063 0.178221 19.7383 0.0939472 19.8008L0.936654 20.8624Z" fill="#404040"/>
</svg>
