<svg width="139" height="117" viewBox="0 0 139 117" fill="none" xmlns="http://www.w3.org/2000/svg">
<path fill-rule="evenodd" clip-rule="evenodd" d="M9.53834 50.0449C46.7837 33.6393 71.6198 22.8238 84.0466 17.5982C119.528 2.67824 126.9 0.0864939 131.706 0.000912479C132.762 -0.0179102 135.126 0.246903 136.656 1.50265C137.949 2.56298 138.304 3.99534 138.475 5.00065C138.645 6.00596 138.857 8.29608 138.688 10.0855C136.766 30.5098 128.446 80.0742 124.213 102.95C122.423 112.629 118.896 115.875 115.482 116.192C108.063 116.883 102.429 111.235 95.2426 106.473C83.9979 99.0209 77.6453 94.3819 66.7303 87.11C54.1162 78.7061 62.2934 74.0872 69.4822 66.5386C71.3635 64.563 104.054 34.5021 104.686 31.7751C104.765 31.434 104.839 30.1627 104.092 29.4915C103.345 28.8202 102.242 29.0497 101.447 29.2323C100.319 29.4911 82.3551 41.4949 47.5556 65.2437C42.4567 68.7835 37.8383 70.5082 33.7003 70.4178C29.1385 70.3182 20.3635 67.8102 13.8402 65.6664C5.83903 63.0369 -0.520125 61.6467 0.0336134 57.1811C0.322035 54.8552 3.49028 52.4764 9.53834 50.0449Z" fill="#2AABEE" fill-opacity="0.04"/>
</svg>
