<svg width="36" height="41" viewBox="0 0 36 41" fill="none" xmlns="http://www.w3.org/2000/svg">
<path d="M34.979 22.1803C34.9065 21.198 34.8274 20.2026 34.6626 19.2466C34.3726 17.5408 33.8188 15.8904 33.021 14.355C32.6776 13.6973 32.2174 13.1075 31.663 12.6145C31.2699 12.2342 30.7576 12.0013 30.2126 11.9553C29.9349 11.9441 29.6567 11.9596 29.3819 12.0014C28.6462 12.0613 27.951 12.3626 27.4042 12.8585C27.3221 12.9209 27.2362 12.9781 27.1471 13.0299L27.068 12.9903C27.0086 12.9178 26.9361 12.8453 26.8834 12.7662C26.7231 12.5148 26.4931 12.3155 26.2216 12.1926C25.95 12.0697 25.6485 12.0285 25.3539 12.0739C25.0225 12.1007 24.6952 12.1648 24.3782 12.2651C24.3782 12.1464 24.332 12.0278 24.3057 11.9091C24.2316 11.5219 24.0686 11.1571 23.8295 10.8437C23.5904 10.5302 23.2817 10.2765 22.9278 10.1028C22.9278 9.97091 22.974 9.84566 23.0003 9.7204C23.134 8.99319 23.3833 8.29209 23.7387 7.64375C24.037 7.1285 24.4792 6.7115 25.0111 6.4439C25.1672 6.35125 25.3439 6.29911 25.5253 6.29226C25.5489 6.29045 25.5726 6.29472 25.5941 6.30467C25.6156 6.31463 25.6341 6.32992 25.648 6.3491C25.6619 6.36828 25.6707 6.3907 25.6734 6.41422C25.6762 6.43774 25.6728 6.46158 25.6637 6.48345C25.6142 6.58652 25.5702 6.69216 25.5319 6.7999C25.3887 7.17017 25.3657 7.57607 25.4659 7.96018C25.6242 8.54691 25.8747 8.71173 26.468 8.61943H26.5669C26.7439 8.58857 26.9053 8.49889 27.0249 8.36489C27.1446 8.23088 27.2155 8.0604 27.2262 7.88107C27.2697 7.60264 27.2348 7.31759 27.1253 7.05791C27.0159 6.79822 26.8362 6.5742 26.6065 6.41094C26.3889 6.25272 26.3889 6.23952 26.5274 6.02856C26.6658 5.8176 26.9493 5.44183 27.1866 5.15176C27.2987 4.99354 27.4239 4.83531 27.6151 4.59139C27.2923 4.67655 26.9984 4.84739 26.7647 5.08583C26.4954 5.35303 26.2566 5.64931 26.0527 5.96923C26.0173 6.03278 25.9641 6.08468 25.8998 6.11862C25.8354 6.15255 25.7626 6.16708 25.6901 6.16042C25.4682 6.14651 25.2456 6.16878 25.0309 6.22635C24.6405 6.32723 24.2751 6.50749 23.9575 6.7559C23.6399 7.00431 23.3769 7.31552 23.1849 7.6701C22.8502 8.28824 22.6165 8.95593 22.4927 9.64787C22.4927 9.74676 22.4927 9.83907 22.4466 9.93137C22.1565 9.83907 21.8532 9.75337 21.55 9.68744C21.0424 9.57537 20.5215 9.48967 20.0073 9.37759C19.7503 9.32376 19.4987 9.24652 19.2558 9.14685C19.0976 9.09512 18.9649 8.98552 18.8842 8.84002C18.8035 8.69451 18.7808 8.52387 18.8207 8.36233C18.8505 8.18386 18.906 8.01066 18.9855 7.84811C19.2989 7.171 19.7476 6.56522 20.304 6.06812C21.2629 5.15979 22.446 4.52274 23.7321 4.22221C24.0024 4.15628 24.2661 4.06399 24.5364 3.97829C24.624 3.95455 24.7009 3.90189 24.7548 3.82888C24.8086 3.75588 24.8362 3.6668 24.8331 3.57613C24.843 3.44447 24.843 3.31224 24.8331 3.18057C24.8331 2.8048 24.7803 2.42244 24.7342 2.05325C24.688 1.68407 24.6419 1.394 24.5957 1.02482C24.5844 0.909929 24.5357 0.801931 24.4571 0.717379C24.3785 0.632827 24.2744 0.576397 24.1606 0.556749C23.8554 0.481084 23.5363 0.481084 23.2311 0.556749C22.277 0.726614 21.3472 1.01219 20.4622 1.40717C19.5159 1.84155 18.6949 2.50832 18.0757 3.34539C17.3919 4.2311 16.8473 5.21594 16.4605 6.26591C16.3551 6.56257 16.243 6.85263 16.1309 7.14271C15.8324 7.98302 15.3105 8.72605 14.6212 9.29189C14.3575 9.50944 14.0938 9.7138 13.8235 9.90499C13.5037 9.71521 13.2034 9.49439 12.9269 9.24573C12.6237 8.96885 12.327 8.68537 12.0303 8.40189C11.7758 8.14619 11.5001 7.91242 11.2063 7.70308C10.679 7.33785 10.0796 7.09001 9.44838 6.97628C8.81718 6.86255 8.16893 6.88558 7.54739 7.04382C7.15985 7.12533 6.79982 7.30521 6.50193 7.56615C6.20404 7.82709 5.97834 8.16032 5.84652 8.53375C5.68818 8.87767 5.62882 9.25891 5.67511 9.63469C5.67816 9.65923 5.68974 9.6819 5.70782 9.69877C5.72589 9.71564 5.7493 9.72564 5.77399 9.727C5.79038 9.72501 5.8061 9.7192 5.81984 9.71004C5.83358 9.70088 5.84496 9.68862 5.8531 9.67424C6.01542 9.33635 6.21204 9.01604 6.43984 8.71834C6.68637 8.34327 7.06153 8.07127 7.49466 7.9536C8.39674 7.67805 9.36543 7.71522 10.2437 8.05908C10.9107 8.3422 11.5205 8.74429 12.0435 9.24573C12.36 9.53581 12.7028 9.81269 13.006 10.083C13.0946 10.1571 13.1894 10.2232 13.2895 10.2808L13.1379 10.3731C12.8083 10.5511 12.4786 10.7422 12.149 10.9202C11.1944 11.4496 10.4136 12.2442 9.90094 13.2079C9.79034 13.3897 9.69761 13.5817 9.62404 13.7814C9.55152 13.8869 9.46583 13.9792 9.36694 14.0978C9.28235 14.0361 9.20094 13.9701 9.12302 13.9001C8.9648 13.755 8.81317 13.6034 8.66813 13.4518C8.40199 13.1777 8.05133 13.0012 7.67265 12.9507C7.2332 12.8836 6.7847 12.906 6.35414 13.0167C5.05622 13.3029 3.90613 14.0501 3.11719 15.1197C2.36559 16.1223 1.82306 17.2656 1.5218 18.4819C1.09194 20.1378 0.87048 21.8408 0.862549 23.5516C0.862549 24.5668 0.862546 25.5887 0.941656 26.6039C1.02077 27.6192 1.13944 28.529 1.31744 29.4849C1.66518 31.2272 2.15466 32.9381 2.78098 34.6007C3.13554 35.5575 3.57688 36.4799 4.0995 37.3564C4.45001 37.9578 4.89523 38.4987 5.41801 38.9584C5.72727 39.2576 6.11303 39.4657 6.53289 39.5599C6.95276 39.6541 7.39046 39.6308 7.79791 39.4924C8.1908 39.3754 8.56736 39.2093 8.91865 38.9979C9.33398 38.7474 9.47902 38.7606 9.8482 39.0639C9.96428 39.158 10.0744 39.2593 10.1778 39.3671C10.3513 39.5451 10.5701 39.6723 10.8106 39.7351C11.0511 39.7978 11.3042 39.7937 11.5425 39.7231C11.9183 39.6111 12.2874 39.4792 12.6566 39.3473C12.9071 39.2551 13.1445 39.1364 13.3818 39.0309C13.5776 38.942 13.7934 38.9061 14.0075 38.927C14.2216 38.9478 14.4264 39.0246 14.6014 39.1496C14.7267 39.2287 14.8453 39.321 14.964 39.4067C15.0827 39.4924 15.2673 39.6572 15.4321 39.7693C15.7524 40.0039 16.143 40.1225 16.5396 40.1055C16.9869 40.1014 17.4254 39.981 17.812 39.7561C18.012 39.6257 18.2429 39.5503 18.4813 39.5376C18.7197 39.5248 18.9573 39.5752 19.1701 39.6836L19.7173 39.9077C20.0073 40.0198 20.2974 40.1385 20.5941 40.2373C21.4461 40.5068 22.3499 40.5701 23.2311 40.4219C24.1673 40.2872 25.0652 39.9594 25.8681 39.4594C26.4417 39.0968 26.3955 38.9716 27.2262 39.3276C27.5433 39.4661 27.8855 39.5375 28.2315 39.5375C28.5775 39.5375 28.9198 39.4661 29.2369 39.3276C29.9324 39.0252 30.5668 38.5985 31.1092 38.0684C31.8784 37.3093 32.5019 36.4155 32.9485 35.4314C33.4647 34.3468 33.8796 33.2169 34.1879 32.056C34.5009 30.8823 34.7322 29.6884 34.8801 28.4828C35.0186 27.3555 35.1109 26.2282 35.1372 25.0942C35.0977 24.0878 35.0449 23.1165 34.979 22.1803ZM26.2175 6.76035C26.3912 6.9596 26.506 7.20325 26.5491 7.46407C26.5922 7.72488 26.5618 7.99254 26.4614 8.23707C26.4529 8.25527 26.4394 8.27067 26.4225 8.28146C26.4056 8.29224 26.3859 8.29795 26.3658 8.29795C26.3458 8.29795 26.3261 8.29224 26.3092 8.28146C26.2922 8.27067 26.2787 8.25527 26.2702 8.23707C26.1384 8.04198 26.0652 7.81321 26.0593 7.57782C26.0429 7.29639 26.0973 7.01535 26.2175 6.76035ZM25.6374 20.374C26.0769 19.4422 26.5164 18.5083 26.9559 17.5721C27.0416 17.3941 27.1471 17.2227 27.2328 17.0513C27.2676 16.9854 27.3198 16.9304 27.3837 16.892C27.4476 16.8537 27.5208 16.8335 27.5954 16.8338C27.9184 16.8338 27.9843 16.8338 28.0634 17.1964C28.1205 17.4539 28.1317 17.7195 28.0964 17.9809C28.0508 18.3382 27.9848 18.6925 27.8986 19.0423C27.5953 20.1894 27.2789 21.3233 26.9625 22.4638C26.8388 22.9756 26.6505 23.4697 26.4021 23.9339C26.3594 23.9939 26.3404 24.0675 26.3489 24.1406C26.3575 24.2137 26.3929 24.281 26.4483 24.3295C26.7986 24.7194 27.1729 25.0871 27.569 25.4305C28.1598 25.9274 28.7807 26.3876 29.4281 26.8083L30.0016 27.1973C30.065 27.2369 30.1119 27.2981 30.1337 27.3695C30.1555 27.441 30.1508 27.518 30.1203 27.5862C30.0676 27.7444 29.9951 27.8038 29.8302 27.7774C29.5204 27.7313 29.2105 27.6785 28.9073 27.606C27.9605 27.3963 27.0452 27.0639 26.1846 26.6171C25.8804 26.4557 25.5854 26.2775 25.3011 26.0831C25.2154 26.0172 25.1363 25.9183 25.0111 25.9117C24.9115 25.9695 24.8276 26.051 24.7671 26.149C23.8789 27.2122 22.7326 28.0294 21.4379 28.5224C20.9335 28.7227 20.4159 28.888 19.8887 29.0168C19.7132 29.0596 19.5301 29.0596 19.3547 29.0168C19.3396 29.0112 19.3259 29.0024 19.3145 28.991C19.3031 28.9797 19.2943 28.9659 19.2887 28.9509C19.2829 28.9385 19.2798 28.925 19.2798 28.9113C19.2798 28.8976 19.2829 28.8841 19.2887 28.8718C19.4206 28.7663 19.5458 28.6608 19.6777 28.5685C20.219 28.1656 20.6988 27.6859 21.1017 27.1445C21.8071 26.2809 22.4202 25.3645 23.0794 24.4482C23.1388 24.3691 23.1915 24.2834 23.2443 24.2042C23.2604 24.175 23.2689 24.1421 23.2689 24.1087C23.2689 24.0752 23.2604 24.0423 23.2443 24.0131L23.0465 23.6702C22.1204 22.0185 21.5332 20.1986 21.3192 18.3171C21.3192 18.1259 21.3192 17.9281 21.2863 17.7303C21.2756 17.6148 21.2955 17.4985 21.3441 17.3932C21.3927 17.2879 21.4683 17.1972 21.5632 17.1304C21.7939 16.9458 21.8796 16.9458 22.0049 17.2227C22.6641 18.6665 23.4552 20.018 24.2266 21.3892C24.338 21.6326 24.4895 21.8554 24.6749 22.0485C25.0433 21.5191 25.3653 20.9588 25.6374 20.374ZM6.86178 28.0477C7.52103 27.0588 8.14732 26.0172 8.72746 24.969C8.75995 24.9141 8.77708 24.8515 8.77708 24.7877C8.77708 24.7239 8.75995 24.6613 8.72746 24.6064C7.90272 22.6811 7.45512 20.6154 7.40895 18.5215C7.38044 17.9303 7.39144 17.3378 7.44191 16.7481C7.442 16.6736 7.4631 16.6008 7.50275 16.5378C7.54239 16.4748 7.59898 16.4243 7.66605 16.3921C7.72538 16.3921 7.79791 16.3591 7.82429 16.4448C7.84659 16.5224 7.86204 16.6018 7.87044 16.6821C7.95799 17.3828 8.11929 18.0722 8.35168 18.739C8.7802 19.9652 9.23508 21.1783 9.7493 22.3649C9.80863 22.4968 9.82842 22.655 9.96687 22.7473C10.0592 22.7473 10.0789 22.6418 10.1185 22.5759C10.8832 21.3101 11.6216 20.0289 12.3336 18.7324C12.538 18.3566 12.7621 17.9941 12.9928 17.6315C13.0533 17.517 13.1561 17.4308 13.2794 17.3914C13.4027 17.3519 13.5365 17.3624 13.6521 17.4205C13.6853 17.4284 13.7144 17.4482 13.7338 17.4761C13.7533 17.5041 13.7617 17.5383 13.7576 17.5721C13.7491 17.685 13.7337 17.7973 13.7114 17.9083C13.6455 18.1984 13.5862 18.4885 13.4939 18.772C13.2038 19.6224 12.9665 20.4992 12.6434 21.3431C12.3477 22.161 11.9884 22.9545 11.5689 23.7164C11.3974 24.0131 11.259 24.3295 11.1008 24.6394C11.0623 24.7018 11.0419 24.7737 11.0419 24.847C11.0419 24.9204 11.0623 24.9923 11.1008 25.0547C11.7836 26.3136 12.6576 27.459 13.6917 28.4499L14.6476 29.3069C14.7017 29.3429 14.7441 29.3939 14.7699 29.4535C14.7956 29.5132 14.8035 29.579 14.7926 29.6431C14.7918 29.6593 14.7877 29.6752 14.7805 29.6897C14.7734 29.7042 14.7633 29.7172 14.7509 29.7277C14.7386 29.7382 14.7242 29.746 14.7087 29.7508C14.6932 29.7555 14.6769 29.757 14.6608 29.7552C14.6121 29.7488 14.5651 29.7332 14.5223 29.709C14.252 29.5838 13.9817 29.4783 13.718 29.3333C12.4582 28.6577 11.2924 27.8199 10.2503 26.8413L10.0789 26.6633C10.0262 26.6039 9.99323 26.5248 9.90094 26.5116C9.80864 26.4985 9.74272 26.6765 9.66361 26.7622C9.06012 27.4767 8.38159 28.1243 7.63969 28.6938C7.34557 28.934 7.0106 29.1194 6.65081 29.2409C6.55433 29.2881 6.44835 29.3127 6.34096 29.3127C6.23357 29.3127 6.12759 29.2881 6.03111 29.2409L6.86178 28.0477ZM32.5398 26.8083C32.4422 27.6239 32.2813 28.4306 32.0585 29.2212C31.8344 29.9991 31.6036 30.7638 31.3597 31.5352C31.0975 32.3309 30.7365 33.0906 30.2851 33.7964C30.1796 33.9612 30.0478 34.1129 29.9291 34.2645C29.9101 34.293 29.883 34.3151 29.8512 34.328C29.8195 34.341 29.7846 34.3441 29.7511 34.337C29.8511 33.7381 29.8755 33.129 29.8236 32.524C29.8162 32.3932 29.7986 32.2632 29.7709 32.1351C29.6984 31.8318 29.5731 31.7527 29.2699 31.8516C28.8156 32.0054 28.3997 32.2549 28.0502 32.5834C27.9095 32.7244 27.8251 32.9119 27.8129 33.1108C27.7602 33.48 27.7074 33.8557 27.6613 34.2315C27.6151 34.6073 27.5558 34.8908 27.5294 35.2072C27.5288 35.3284 27.4866 35.4456 27.4098 35.5392C27.3329 35.6329 27.2262 35.6972 27.1075 35.7214C26.3626 35.9324 25.611 36.117 24.8528 36.262C23.6926 36.4796 22.5191 36.6048 21.3456 36.7433H21.2929C21.1281 36.7433 21.0753 36.7103 21.0951 36.5587C21.1493 36.1214 21.1647 35.6802 21.1412 35.2402C21.1303 34.9124 21.0929 34.5862 21.0292 34.2645C21.0129 34.1675 20.9864 34.0724 20.9501 33.981C20.9277 33.9013 20.8817 33.8303 20.8182 33.7774C20.7546 33.7244 20.6765 33.6919 20.5941 33.6843C20.0529 33.6113 19.5023 33.708 19.0184 33.9612C18.9441 33.9968 18.8798 34.0504 18.8314 34.1172C18.783 34.184 18.7522 34.2618 18.7416 34.3436C18.7171 34.4722 18.6995 34.6021 18.6888 34.7326C18.6492 35.3391 18.6163 35.9456 18.5833 36.5521C18.5833 36.6048 18.5833 36.651 18.5833 36.6971C18.5833 36.8949 18.5438 36.9411 18.3592 36.9476H17.1791C16.9154 36.9476 16.6583 36.9476 16.4342 36.9476C16.3925 36.9092 16.3633 36.8591 16.3503 36.8039C16.3374 36.7486 16.3413 36.6908 16.3616 36.6378C16.409 36.0812 16.3869 35.521 16.2957 34.9699C16.2232 34.4095 16.0716 34.3106 15.498 34.3832C15.1221 34.4258 14.7564 34.5328 14.4168 34.6996C14.2607 34.7568 14.129 34.866 14.0437 35.0089C13.9585 35.1517 13.925 35.3195 13.9488 35.4841C13.9488 35.6951 13.9817 35.906 13.9949 36.1434C14.0081 36.3807 14.0279 36.5323 14.0345 36.7301C14.0354 36.7503 14.0321 36.7704 14.0248 36.7892C14.0176 36.808 14.0064 36.8251 13.9922 36.8394C13.9779 36.8537 13.9608 36.8648 13.942 36.8721C13.9231 36.8794 13.903 36.8827 13.8828 36.8817H13.6851L13.0258 36.8356C12.7481 36.7992 12.4686 36.7794 12.1886 36.7763C11.47 36.7763 10.7448 36.7762 10.0262 36.6905C9.68338 36.6905 9.36694 36.6048 8.99776 36.5521C8.94063 36.5487 8.88694 36.5236 8.84771 36.482C8.80849 36.4403 8.78669 36.3852 8.78679 36.3279C8.78679 36.0774 8.74724 35.8335 8.72746 35.5896C8.68791 35.1808 8.65494 34.7721 8.62198 34.3634C8.62201 34.3138 8.60278 34.2661 8.56834 34.2305C8.5339 34.1948 8.48694 34.1739 8.43739 34.1722L7.01339 34.0601C6.9805 34.0544 6.94677 34.0559 6.91451 34.0644C6.88225 34.073 6.85223 34.0885 6.82653 34.1098C6.80083 34.1311 6.78007 34.1578 6.76567 34.1879C6.75127 34.218 6.74356 34.2509 6.7431 34.2843C6.71341 34.5956 6.71341 34.9091 6.7431 35.2204C6.7431 35.3852 6.74311 35.55 6.77607 35.7148C6.77376 35.7306 6.76766 35.7455 6.75833 35.7584C6.74899 35.7713 6.73669 35.7818 6.72245 35.7889C6.70822 35.796 6.69246 35.7996 6.67654 35.7993C6.66063 35.7991 6.64502 35.795 6.63103 35.7874C6.44153 35.6856 6.28231 35.5355 6.16955 35.3523C5.68761 34.6476 5.27267 33.8994 4.93014 33.1174C4.33573 31.6918 3.87879 30.2128 3.5655 28.7004C3.33982 27.7417 3.20516 26.7638 3.16334 25.7799C3.54571 26.505 3.98741 27.1709 4.31704 27.9093C4.6136 28.5694 4.97816 29.1969 5.40481 29.7815C6.01657 30.6613 6.8275 31.3842 7.77153 31.8912C8.09457 32.056 8.4308 32.1878 8.76702 32.3197C8.82955 32.336 8.88541 32.3715 8.92678 32.4211C8.96815 32.4708 8.99298 32.5321 8.99776 32.5966C9.05262 33.0204 9.14079 33.4392 9.26146 33.8492C9.29442 33.9546 9.32739 34.0667 9.36694 34.1722C9.39185 34.2607 9.44298 34.3395 9.51359 34.3984C9.5842 34.4572 9.67098 34.4933 9.7625 34.5018C10.3316 34.6061 10.9185 34.549 11.4568 34.337C11.6095 34.2761 11.7431 34.1756 11.844 34.0458C11.9448 33.916 12.0091 33.7616 12.0303 33.5986C12.0633 33.3679 12.0897 33.1437 12.1226 32.9394C12.1556 32.735 12.1622 32.6823 12.4325 32.6757C13.4345 32.6757 14.4102 32.6757 15.4387 32.6361C17.163 32.5835 18.8825 32.425 20.5875 32.1615C21.5104 32.023 22.4268 31.8121 23.3432 31.6406L23.4882 31.6077C23.5805 31.6077 23.653 31.6077 23.6662 31.7198C23.7057 31.9307 23.7321 32.1417 23.7783 32.379C23.8244 32.6163 23.8969 32.8866 23.9628 33.1437C23.98 33.2164 24.0228 33.2804 24.0834 33.324C24.1439 33.3676 24.2182 33.3878 24.2925 33.3811H24.4441L25.9274 33.0383C25.9767 33.0259 26.0251 33.0105 26.0725 32.9921C26.2902 32.9395 26.4835 32.8141 26.6201 32.6367C26.7568 32.4592 26.8288 32.2404 26.824 32.0164C26.824 31.6407 26.8899 31.2649 26.9097 30.8891C26.9079 30.824 26.9286 30.7604 26.9682 30.7088C27.0078 30.6571 27.064 30.6207 27.1273 30.6056C27.7865 30.3749 28.4458 30.098 29.1051 29.887C30.032 29.5755 30.8266 28.9598 31.3597 28.14C31.6147 27.7627 31.8353 27.3634 32.0189 26.9468C32.1244 26.7226 32.2299 26.4985 32.3486 26.2875C32.3486 26.2413 32.3947 26.1622 32.5134 26.182C32.5454 26.3892 32.5542 26.5992 32.5398 26.8083Z" fill="#72ED2F"/>
</svg>
